<svg version="1.1" viewBox="0.0 0.0 539.0157480314961 404.0" fill="none" stroke="none" stroke-linecap="square" stroke-miterlimit="10" xmlns:xlink="http://www.w3.org/1999/xlink" xmlns="http://www.w3.org/2000/svg"><clipPath id="p.0"><path d="m0 0l539.01575 0l0 404.0l-539.01575 0l0 -404.0z" clip-rule="nonzero"/></clipPath><g clip-path="url(#p.0)"><path fill="#000000" fill-opacity="0.0" d="m0 0l539.01575 0l0 404.0l-539.01575 0z" fill-rule="evenodd"/><path fill="#000000" fill-opacity="0.0" d="m24.897638 75.0l0 247.81104" fill-rule="evenodd"/><path stroke="#000000" stroke-width="2.0" stroke-linejoin="round" stroke-linecap="butt" d="m24.897638 75.0l0 247.81104" fill-rule="evenodd"/><path fill="#000000" fill-opacity="0.0" d="m104.89764 215.0l0 107.811035" fill-rule="evenodd"/><path stroke="#000000" stroke-width="2.0" stroke-linejoin="round" stroke-linecap="butt" d="m104.89764 215.0l0 107.811035" fill-rule="evenodd"/><path fill="#000000" fill-opacity="0.0" d="m184.89764 215.0l0 177.79529" fill-rule="evenodd"/><path stroke="#000000" stroke-width="2.0" stroke-linejoin="round" stroke-linecap="butt" d="m184.89764 215.0l0 177.79529" fill-rule="evenodd"/><path fill="#000000" fill-opacity="0.0" d="m326.0 163.89764l197.79529 0" fill-rule="evenodd"/><path stroke="#000000" stroke-width="2.0" stroke-linejoin="round" stroke-linecap="butt" d="m326.0 163.89764l197.79529 0" fill-rule="evenodd"/><path fill="#000000" fill-opacity="0.0" d="m326.0 303.89764l197.79529 0" fill-rule="evenodd"/><path stroke="#000000" stroke-width="2.0" stroke-linejoin="round" stroke-linecap="butt" d="m326.0 303.89764l197.79529 0" fill-rule="evenodd"/><path fill="#000000" fill-opacity="0.0" d="m344.89764 5.0l0 317.7953" fill-rule="evenodd"/><path stroke="#000000" stroke-width="2.0" stroke-linejoin="round" stroke-linecap="butt" d="m344.89764 5.0l0 317.7953" fill-rule="evenodd"/><path fill="#000000" fill-opacity="0.0" d="m504.89764 75.0l0 107.81102" fill-rule="evenodd"/><path stroke="#000000" stroke-width="2.0" stroke-linejoin="round" stroke-linecap="butt" d="m504.89764 75.0l0 107.81102" fill-rule="evenodd"/><path fill="#000000" fill-opacity="0.0" d="m6.0 93.89764l517.7953 0" fill-rule="evenodd"/><path stroke="#000000" stroke-width="2.0" stroke-linejoin="round" stroke-linecap="butt" d="m6.0 93.89764l517.7953 0" fill-rule="evenodd"/><path fill="#000000" fill-opacity="0.0" d="m6.0 233.89764l357.7953 0" fill-rule="evenodd"/><path stroke="#000000" stroke-width="2.0" stroke-linejoin="round" stroke-linecap="butt" d="m6.0 233.89764l357.7953 0" fill-rule="evenodd"/><path fill="#000000" fill-opacity="0.0" d="m6.0 303.89764l197.79527 0" fill-rule="evenodd"/><path stroke="#000000" stroke-width="2.0" stroke-linejoin="round" stroke-linecap="butt" d="m6.0 303.89764l197.79527 0" fill-rule="evenodd"/><path fill="#ffffff" d="m326.0 23.897638l0 0c0 -10.436877 8.460754 -18.897638 18.897644 -18.897638l0 0c5.011963 0 9.818634 1.9909954 13.36264 5.5349903c3.5440063 3.543994 5.5350037 8.350683 5.5350037 13.362648l0 0c0 10.436876 -8.460785 18.897638 -18.897644 18.897638l0 0c-10.43689 0 -18.897644 -8.460762 -18.897644 -18.897638z" fill-rule="evenodd"/><path stroke="#000000" stroke-width="3.0" stroke-linejoin="round" stroke-linecap="butt" d="m326.0 23.897638l0 0c0 -10.436877 8.460754 -18.897638 18.897644 -18.897638l0 0c5.011963 0 9.818634 1.9909954 13.36264 5.5349903c3.5440063 3.543994 5.5350037 8.350683 5.5350037 13.362648l0 0c0 10.436876 -8.460785 18.897638 -18.897644 18.897638l0 0c-10.43689 0 -18.897644 -8.460762 -18.897644 -18.897638z" fill-rule="evenodd"/><path fill="#000000" d="m340.49103 24.223886q0 -2.359375 0.484375 -3.796875q0.484375 -1.453125 1.4375 -2.234375q0.96875 -0.78125 2.421875 -0.78125q1.078125 0 1.890625 0.4375q0.8125 0.421875 1.328125 1.25q0.53125 0.8125 0.828125 1.984375q0.3125 1.15625 0.3125 3.140625q0 2.359375 -0.484375 3.8125q-0.484375 1.4375 -1.453125 2.234375q-0.953125 0.78125 -2.421875 0.78125q-1.921875 0 -3.03125 -1.390625q-1.3125 -1.671875 -1.3125 -5.4375zm1.671875 0q0 3.296875 0.765625 4.390625q0.78125 1.078125 1.90625 1.078125q1.140625 0 1.90625 -1.09375q0.765625 -1.09375 0.765625 -4.375q0 -3.296875 -0.765625 -4.375q-0.765625 -1.078125 -1.921875 -1.078125q-1.125 0 -1.796875 0.953125q-0.859375 1.21875 -0.859375 4.5z" fill-rule="nonzero"/><path fill="#ffffff" d="m326.0 163.89764l0 0c0 -10.43689 8.460754 -18.897644 18.897644 -18.897644l0 0c5.011963 0 9.818634 1.9909973 13.36264 5.5349884c3.5440063 3.543991 5.5350037 8.3506775 5.5350037 13.362656l0 0c0 10.436874 -8.460785 18.897629 -18.897644 18.897629l0 0c-10.43689 0 -18.897644 -8.460754 -18.897644 -18.897629z" fill-rule="evenodd"/><path stroke="#000000" stroke-width="3.0" stroke-linejoin="round" stroke-linecap="butt" d="m326.0 163.89764l0 0c0 -10.43689 8.460754 -18.897644 18.897644 -18.897644l0 0c5.011963 0 9.818634 1.9909973 13.36264 5.5349884c3.5440063 3.543991 5.5350037 8.3506775 5.5350037 13.362656l0 0c0 10.436874 -8.460785 18.897629 -18.897644 18.897629l0 0c-10.43689 0 -18.897644 -8.460754 -18.897644 -18.897629z" fill-rule="evenodd"/><path fill="#000000" d="m343.00665 163.58327q-1.015625 -0.375 -1.515625 -1.0625q-0.484375 -0.703125 -0.484375 -1.671875q0 -1.453125 1.046875 -2.4375q1.046875 -1.0 2.78125 -1.0q1.75 0 2.8125 1.015625q1.078125 1.015625 1.078125 2.46875q0 0.9375 -0.5 1.625q-0.484375 0.6875 -1.46875 1.0625q1.21875 0.390625 1.859375 1.28125q0.65625 0.890625 0.65625 2.140625q0 1.703125 -1.21875 2.875q-1.21875 1.171875 -3.1875 1.171875q-1.984375 0 -3.203125 -1.171875q-1.203125 -1.171875 -1.203125 -2.921875q0 -1.3125 0.65625 -2.1875q0.671875 -0.875 1.890625 -1.1875zm-0.328125 -2.78125q0 0.9375 0.609375 1.546875q0.609375 0.59375 1.59375 0.59375q0.9375 0 1.546875 -0.59375q0.609375 -0.59375 0.609375 -1.453125q0 -0.90625 -0.625 -1.515625q-0.625 -0.625 -1.5625 -0.625q-0.9375 0 -1.5625 0.609375q-0.609375 0.59375 -0.609375 1.4375zm-0.53125 6.15625q0 0.703125 0.328125 1.359375q0.34375 0.65625 1.0 1.015625q0.65625 0.359375 1.40625 0.359375q1.171875 0 1.9375 -0.75q0.765625 -0.75 0.765625 -1.921875q0 -1.1875 -0.796875 -1.953125q-0.78125 -0.78125 -1.953125 -0.78125q-1.15625 0 -1.921875 0.765625q-0.765625 0.765625 -0.765625 1.90625z" fill-rule="nonzero"/><path fill="#ffffff" d="m326.0 93.89764l0 0c0 -10.436874 8.460754 -18.897636 18.897644 -18.897636l0 0c5.011963 0 9.818634 1.9909973 13.36264 5.5349884c3.5440063 3.5439987 5.5350037 8.350685 5.5350037 13.362648l0 0c0 10.436882 -8.460785 18.897636 -18.897644 18.897636l0 0c-10.43689 0 -18.897644 -8.460754 -18.897644 -18.897636z" fill-rule="evenodd"/><path stroke="#000000" stroke-width="3.0" stroke-linejoin="round" stroke-linecap="butt" d="m326.0 93.89764l0 0c0 -10.436874 8.460754 -18.897636 18.897644 -18.897636l0 0c5.011963 0 9.818634 1.9909973 13.36264 5.5349884c3.5440063 3.5439987 5.5350037 8.350685 5.5350037 13.362648l0 0c0 10.436882 -8.460785 18.897636 -18.897644 18.897636l0 0c-10.43689 0 -18.897644 -8.460754 -18.897644 -18.897636z" fill-rule="evenodd"/><path fill="#000000" d="m340.49103 97.317635l1.71875 -0.140625q0.1875 1.25 0.875 1.890625q0.703125 0.625 1.6875 0.625q1.1875 0 2.0 -0.890625q0.828125 -0.890625 0.828125 -2.359375q0 -1.40625 -0.796875 -2.21875q-0.78125 -0.8125 -2.0625 -0.8125q-0.78125 0 -1.421875 0.359375q-0.640625 0.359375 -1.0 0.9375l-1.546875 -0.203125l1.296875 -6.859375l6.640625 0l0 1.5625l-5.328125 0l-0.71875 3.59375q1.203125 -0.84375 2.515625 -0.84375q1.75 0 2.953125 1.21875q1.203125 1.203125 1.203125 3.109375q0 1.8125 -1.046875 3.140625q-1.296875 1.625 -3.515625 1.625q-1.8125 0 -2.96875 -1.015625q-1.15625 -1.03125 -1.3125 -2.71875z" fill-rule="nonzero"/><path fill="#ffffff" d="m166.0 373.89764l0 0c0 -10.43689 8.460754 -18.897644 18.897644 -18.897644l0 0c5.011963 0 9.818649 1.9909973 13.36264 5.5350037c3.543991 3.5439758 5.5349884 8.3506775 5.5349884 13.36264l0 0c0 10.436859 -8.460754 18.897644 -18.897629 18.897644l0 0c-10.43689 0 -18.897644 -8.460785 -18.897644 -18.897644z" fill-rule="evenodd"/><path stroke="#000000" stroke-width="3.0" stroke-linejoin="round" stroke-linecap="butt" d="m166.0 373.89764l0 0c0 -10.43689 8.460754 -18.897644 18.897644 -18.897644l0 0c5.011963 0 9.818649 1.9909973 13.36264 5.5350037c3.543991 3.5439758 5.5349884 8.3506775 5.5349884 13.36264l0 0c0 10.436859 -8.460754 18.897644 -18.897629 18.897644l0 0c-10.43689 0 -18.897644 -8.460785 -18.897644 -18.897644z" fill-rule="evenodd"/><path fill="#000000" d="m183.91255 379.2395l0 1.578125l-8.828125 0q-0.015625 -0.59375 0.1875 -1.140625q0.34375 -0.90625 1.078125 -1.78125q0.75 -0.875 2.15625 -2.015625q2.171875 -1.78125 2.9375 -2.828125q0.765625 -1.046875 0.765625 -1.96875q0 -0.984375 -0.703125 -1.640625q-0.6875 -0.671875 -1.8125 -0.671875q-1.1875 0 -1.90625 0.71875q-0.703125 0.703125 -0.703125 1.953125l-1.6875 -0.171875q0.171875 -1.890625 1.296875 -2.875q1.140625 -0.984375 3.03125 -0.984375q1.921875 0 3.046875 1.0625q1.125 1.0625 1.125 2.640625q0 0.796875 -0.328125 1.578125q-0.328125 0.78125 -1.09375 1.640625q-0.75 0.84375 -2.53125 2.34375q-1.46875 1.234375 -1.890625 1.6875q-0.421875 0.4375 -0.6875 0.875l6.546875 0zm10.375717 0l0 1.578125l-8.828125 0q-0.015625 -0.59375 0.1875 -1.140625q0.34375 -0.90625 1.078125 -1.78125q0.75 -0.875 2.15625 -2.015625q2.171875 -1.78125 2.9375 -2.828125q0.765625 -1.046875 0.765625 -1.96875q0 -0.984375 -0.703125 -1.640625q-0.6875 -0.671875 -1.8125 -0.671875q-1.1875 0 -1.90625 0.71875q-0.703125 0.703125 -0.703125 1.953125l-1.6875 -0.171875q0.171875 -1.890625 1.296875 -2.875q1.140625 -0.984375 3.03125 -0.984375q1.921875 0 3.046875 1.0625q1.125 1.0625 1.125 2.640625q0 0.796875 -0.328125 1.578125q-0.328125 0.78125 -1.09375 1.640625q-0.75 0.84375 -2.53125 2.34375q-1.46875 1.234375 -1.890625 1.6875q-0.421875 0.4375 -0.6875 0.875l6.546875 0z" fill-rule="nonzero"/><path fill="#ffffff" d="m6.0 93.89764l0 0c0 -10.436874 8.460761 -18.897636 18.897638 -18.897636l0 0c5.011965 0 9.818651 1.9909973 13.362646 5.5349884c3.543995 3.5439987 5.534992 8.350685 5.534992 13.362648l0 0c0 10.436882 -8.460762 18.897636 -18.897638 18.897636l0 0c-10.436877 0 -18.897638 -8.460754 -18.897638 -18.897636z" fill-rule="evenodd"/><path stroke="#000000" stroke-width="3.0" stroke-linejoin="round" stroke-linecap="butt" d="m6.0 93.89764l0 0c0 -10.436874 8.460761 -18.897636 18.897638 -18.897636l0 0c5.011965 0 9.818651 1.9909973 13.362646 5.5349884c3.543995 3.5439987 5.534992 8.350685 5.534992 13.362648l0 0c0 10.436882 -8.460762 18.897636 -18.897638 18.897636l0 0c-10.436877 0 -18.897638 -8.460754 -18.897638 -18.897636z" fill-rule="evenodd"/><path fill="#000000" d="m26.662905 100.817635l-1.640625 0l0 -10.453125q-0.59375 0.5625 -1.5625 1.140625q-0.953125 0.5625 -1.71875 0.84375l0 -1.59375q1.375 -0.640625 2.40625 -1.5625q1.03125 -0.921875 1.453125 -1.78125l1.0625 0l0 13.40625z" fill-rule="nonzero"/><path fill="#ffffff" d="m486.0 93.89764l0 0c0 -10.436874 8.460754 -18.897636 18.897644 -18.897636l0 0c5.011963 0 9.818665 1.9909973 13.362671 5.5349884c3.5439453 3.5439987 5.534973 8.350685 5.534973 13.362648l0 0c0 10.436882 -8.460754 18.897636 -18.897644 18.897636l0 0c-10.43689 0 -18.897644 -8.460754 -18.897644 -18.897636z" fill-rule="evenodd"/><path stroke="#000000" stroke-width="3.0" stroke-linejoin="round" stroke-linecap="butt" d="m486.0 93.89764l0 0c0 -10.436874 8.460754 -18.897636 18.897644 -18.897636l0 0c5.011963 0 9.818665 1.9909973 13.362671 5.5349884c3.5439453 3.5439987 5.534973 8.350685 5.534973 13.362648l0 0c0 10.436882 -8.460754 18.897636 -18.897644 18.897636l0 0c-10.43689 0 -18.897644 -8.460754 -18.897644 -18.897636z" fill-rule="evenodd"/><path fill="#000000" d="m508.99103 90.73951l-1.625 0.125q-0.21875 -0.96875 -0.625 -1.40625q-0.65625 -0.703125 -1.640625 -0.703125q-0.78125 0 -1.375 0.4375q-0.765625 0.5625 -1.21875 1.65625q-0.453125 1.078125 -0.46875 3.078125q0.59375 -0.890625 1.453125 -1.328125q0.859375 -0.4375 1.796875 -0.4375q1.640625 0 2.78125 1.203125q1.15625 1.203125 1.15625 3.109375q0 1.265625 -0.546875 2.34375q-0.53125 1.078125 -1.484375 1.65625q-0.9375 0.578125 -2.140625 0.578125q-2.0625 0 -3.359375 -1.5q-1.28125 -1.515625 -1.28125 -4.984375q0 -3.875 1.421875 -5.625q1.25 -1.53125 3.375 -1.53125q1.5625 0 2.5625 0.890625q1.015625 0.875 1.21875 2.4375zm-6.6875 5.75q0 0.84375 0.359375 1.625q0.359375 0.765625 1.0 1.171875q0.640625 0.40625 1.359375 0.40625q1.03125 0 1.78125 -0.828125q0.75 -0.84375 0.75 -2.28125q0 -1.390625 -0.734375 -2.1875q-0.734375 -0.796875 -1.859375 -0.796875q-1.109375 0 -1.890625 0.796875q-0.765625 0.796875 -0.765625 2.09375z" fill-rule="nonzero"/><path fill="#ffffff" d="m326.0 303.89764l0 0c0 -10.43689 8.460754 -18.897644 18.897644 -18.897644l0 0c5.011963 0 9.818634 1.9909973 13.36264 5.5350037c3.5440063 3.5439758 5.5350037 8.3506775 5.5350037 13.36264l0 0c0 10.436859 -8.460785 18.897644 -18.897644 18.897644l0 0c-10.43689 0 -18.897644 -8.460785 -18.897644 -18.897644z" fill-rule="evenodd"/><path stroke="#000000" stroke-width="3.0" stroke-linejoin="round" stroke-linecap="butt" d="m326.0 303.89764l0 0c0 -10.43689 8.460754 -18.897644 18.897644 -18.897644l0 0c5.011963 0 9.818634 1.9909973 13.36264 5.5350037c3.5440063 3.5439758 5.5350037 8.3506775 5.5350037 13.36264l0 0c0 10.436859 -8.460785 18.897644 -18.897644 18.897644l0 0c-10.43689 0 -18.897644 -8.460785 -18.897644 -18.897644z" fill-rule="evenodd"/><path fill="#000000" d="m341.47504 310.81763l-1.640625 0l0 -10.453125q-0.59375 0.5625 -1.5625 1.140625q-0.953125 0.5625 -1.71875 0.84375l0 -1.59375q1.375 -0.640625 2.40625 -1.5625q1.03125 -0.921875 1.453125 -1.78125l1.0625 0l0 13.40625zm4.4382324 -3.09375l1.578125 -0.140625q0.203125 1.109375 0.765625 1.609375q0.5625 0.5 1.453125 0.5q0.75 0 1.3125 -0.34375q0.578125 -0.34375 0.9375 -0.921875q0.375 -0.578125 0.609375 -1.5625q0.25 -0.984375 0.25 -2.0q0 -0.109375 0 -0.328125q-0.5 0.78125 -1.359375 1.265625q-0.84375 0.484375 -1.828125 0.484375q-1.671875 0 -2.8125 -1.203125q-1.140625 -1.203125 -1.140625 -3.171875q0 -2.03125 1.1875 -3.265625q1.203125 -1.234375 3.0 -1.234375q1.3125 0 2.390625 0.703125q1.078125 0.703125 1.640625 2.0q0.5625 1.296875 0.5625 3.75q0 2.5625 -0.5625 4.078125q-0.5625 1.515625 -1.65625 2.3125q-1.09375 0.796875 -2.578125 0.796875q-1.5625 0 -2.5625 -0.875q-0.984375 -0.875 -1.1875 -2.453125zm6.71875 -5.890625q0 -1.40625 -0.75 -2.234375q-0.75 -0.828125 -1.8125 -0.828125q-1.09375 0 -1.90625 0.890625q-0.8125 0.890625 -0.8125 2.3125q0 1.28125 0.765625 2.078125q0.78125 0.796875 1.90625 0.796875q1.140625 0 1.875 -0.796875q0.734375 -0.796875 0.734375 -2.21875z" fill-rule="nonzero"/><path fill="#ffffff" d="m326.0 233.89764l0 0c0 -10.43689 8.460754 -18.897644 18.897644 -18.897644l0 0c5.011963 0 9.818634 1.9909973 13.36264 5.5349884c3.5440063 3.543991 5.5350037 8.3506775 5.5350037 13.362656l0 0c0 10.436874 -8.460785 18.897629 -18.897644 18.897629l0 0c-10.43689 0 -18.897644 -8.460754 -18.897644 -18.897629z" fill-rule="evenodd"/><path stroke="#000000" stroke-width="3.0" stroke-linejoin="round" stroke-linecap="butt" d="m326.0 233.89764l0 0c0 -10.43689 8.460754 -18.897644 18.897644 -18.897644l0 0c5.011963 0 9.818634 1.9909973 13.36264 5.5349884c3.5440063 3.543991 5.5350037 8.3506775 5.5350037 13.362656l0 0c0 10.436874 -8.460785 18.897629 -18.897644 18.897629l0 0c-10.43689 0 -18.897644 -8.460754 -18.897644 -18.897629z" fill-rule="evenodd"/><path fill="#000000" d="m341.47504 240.81764l-1.640625 0l0 -10.453125q-0.59375 0.5625 -1.5625 1.140625q-0.953125 0.5625 -1.71875 0.84375l0 -1.59375q1.375 -0.640625 2.40625 -1.5625q1.03125 -0.921875 1.453125 -1.78125l1.0625 0l0 13.40625zm4.2038574 -3.5l1.71875 -0.140625q0.1875 1.25 0.875 1.890625q0.703125 0.625 1.6875 0.625q1.1875 0 2.0 -0.890625q0.828125 -0.890625 0.828125 -2.359375q0 -1.40625 -0.796875 -2.21875q-0.78125 -0.8125 -2.0625 -0.8125q-0.78125 0 -1.421875 0.359375q-0.640625 0.359375 -1.0 0.9375l-1.546875 -0.203125l1.296875 -6.859375l6.640625 0l0 1.5625l-5.328125 0l-0.71875 3.59375q1.203125 -0.84375 2.515625 -0.84375q1.75 0 2.953125 1.21875q1.203125 1.203125 1.203125 3.109375q0 1.8125 -1.046875 3.140625q-1.296875 1.625 -3.515625 1.625q-1.8125 0 -2.96875 -1.015625q-1.15625 -1.03125 -1.3125 -2.71875z" fill-rule="nonzero"/><path fill="#ffffff" d="m486.0 163.89764l0 0c0 -10.43689 8.460754 -18.897644 18.897644 -18.897644l0 0c5.011963 0 9.818665 1.9909973 13.362671 5.5349884c3.5439453 3.543991 5.534973 8.3506775 5.534973 13.362656l0 0c0 10.436874 -8.460754 18.897629 -18.897644 18.897629l0 0c-10.43689 0 -18.897644 -8.460754 -18.897644 -18.897629z" fill-rule="evenodd"/><path stroke="#000000" stroke-width="3.0" stroke-linejoin="round" stroke-linecap="butt" d="m486.0 163.89764l0 0c0 -10.43689 8.460754 -18.897644 18.897644 -18.897644l0 0c5.011963 0 9.818665 1.9909973 13.362671 5.5349884c3.5439453 3.543991 5.534973 8.3506775 5.534973 13.362656l0 0c0 10.436874 -8.460754 18.897629 -18.897644 18.897629l0 0c-10.43689 0 -18.897644 -8.460754 -18.897644 -18.897629z" fill-rule="evenodd"/><path fill="#000000" d="m501.47504 170.81764l-1.640625 0l0 -10.453125q-0.59375 0.5625 -1.5625 1.140625q-0.953125 0.5625 -1.71875 0.84375l0 -1.59375q1.375 -0.640625 2.40625 -1.5625q1.03125 -0.921875 1.453125 -1.78125l1.0625 0l0 13.40625zm4.2038574 -6.59375q0 -2.359375 0.484375 -3.796875q0.484375 -1.453125 1.4375 -2.234375q0.96875 -0.78125 2.421875 -0.78125q1.078125 0 1.890625 0.4375q0.8125 0.421875 1.328125 1.25q0.53125 0.8125 0.828125 1.984375q0.3125 1.15625 0.3125 3.140625q0 2.359375 -0.484375 3.8125q-0.484375 1.4375 -1.453125 2.234375q-0.953125 0.78125 -2.421875 0.78125q-1.921875 0 -3.03125 -1.390625q-1.3125 -1.671875 -1.3125 -5.4375zm1.671875 0q0 3.296875 0.765625 4.390625q0.78125 1.078125 1.90625 1.078125q1.140625 0 1.90625 -1.09375q0.765625 -1.09375 0.765625 -4.375q0 -3.296875 -0.765625 -4.375q-0.765625 -1.078125 -1.921875 -1.078125q-1.125 0 -1.796875 0.953125q-0.859375 1.21875 -0.859375 4.5z" fill-rule="nonzero"/><path fill="#ffffff" d="m406.0 163.89764l0 0c0 -10.43689 8.460754 -18.897644 18.897644 -18.897644l0 0c5.011963 0 9.818634 1.9909973 13.36264 5.5349884c3.5440063 3.543991 5.5350037 8.3506775 5.5350037 13.362656l0 0c0 10.436874 -8.460785 18.897629 -18.897644 18.897629l0 0c-10.43689 0 -18.897644 -8.460754 -18.897644 -18.897629z" fill-rule="evenodd"/><path stroke="#000000" stroke-width="3.0" stroke-linejoin="round" stroke-linecap="butt" d="m406.0 163.89764l0 0c0 -10.43689 8.460754 -18.897644 18.897644 -18.897644l0 0c5.011963 0 9.818634 1.9909973 13.36264 5.5349884c3.5440063 3.543991 5.5350037 8.3506775 5.5350037 13.362656l0 0c0 10.436874 -8.460785 18.897629 -18.897644 18.897629l0 0c-10.43689 0 -18.897644 -8.460754 -18.897644 -18.897629z" fill-rule="evenodd"/><path fill="#000000" d="m420.7254 167.72389l1.578125 -0.140625q0.203125 1.109375 0.765625 1.609375q0.5625 0.5 1.453125 0.5q0.75 0 1.3125 -0.34375q0.578125 -0.34375 0.9375 -0.921875q0.375 -0.578125 0.609375 -1.5625q0.25 -0.984375 0.25 -2.0q0 -0.109375 0 -0.328125q-0.5 0.78125 -1.359375 1.265625q-0.84375 0.484375 -1.828125 0.484375q-1.671875 0 -2.8125 -1.203125q-1.140625 -1.203125 -1.140625 -3.171875q0 -2.03125 1.1875 -3.265625q1.203125 -1.234375 3.0 -1.234375q1.3125 0 2.390625 0.703125q1.078125 0.703125 1.640625 2.0q0.5625 1.296875 0.5625 3.75q0 2.5625 -0.5625 4.078125q-0.5625 1.515625 -1.65625 2.3125q-1.09375 0.796875 -2.578125 0.796875q-1.5625 0 -2.5625 -0.875q-0.984375 -0.875 -1.1875 -2.453125zm6.71875 -5.890625q0 -1.40625 -0.75 -2.234375q-0.75 -0.828125 -1.8125 -0.828125q-1.09375 0 -1.90625 0.890625q-0.8125 0.890625 -0.8125 2.3125q0 1.28125 0.765625 2.078125q0.78125 0.796875 1.90625 0.796875q1.140625 0 1.875 -0.796875q0.734375 -0.796875 0.734375 -2.21875z" fill-rule="nonzero"/><path fill="#ffffff" d="m86.0 93.89764l0 0c0 -10.436874 8.460762 -18.897636 18.897636 -18.897636l0 0c5.011963 0 9.818657 1.9909973 13.362648 5.5349884c3.5439987 3.5439987 5.5349884 8.350685 5.5349884 13.362648l0 0c0 10.436882 -8.460754 18.897636 -18.897636 18.897636l0 0c-10.436874 0 -18.897636 -8.460754 -18.897636 -18.897636z" fill-rule="evenodd"/><path stroke="#000000" stroke-width="3.0" stroke-linejoin="round" stroke-linecap="butt" d="m86.0 93.89764l0 0c0 -10.436874 8.460762 -18.897636 18.897636 -18.897636l0 0c5.011963 0 9.818657 1.9909973 13.362648 5.5349884c3.5439987 3.5439987 5.5349884 8.350685 5.5349884 13.362648l0 0c0 10.436882 -8.460754 18.897636 -18.897636 18.897636l0 0c-10.436874 0 -18.897636 -8.460754 -18.897636 -18.897636z" fill-rule="evenodd"/><path fill="#000000" d="m109.1004 99.23951l0 1.578125l-8.828125 0q-0.015625 -0.59375 0.1875 -1.140625q0.34375 -0.90625 1.078125 -1.78125q0.75 -0.875 2.15625 -2.015625q2.171875 -1.78125 2.9375 -2.828125q0.765625 -1.046875 0.765625 -1.96875q0 -0.984375 -0.703125 -1.640625q-0.6875 -0.671875 -1.8125 -0.671875q-1.1875 0 -1.90625 0.71875q-0.703125 0.703125 -0.703125 1.953125l-1.6875 -0.171875q0.171875 -1.890625 1.296875 -2.875q1.140625 -0.984375 3.03125 -0.984375q1.921875 0 3.046875 1.0625q1.125 1.0625 1.125 2.640625q0 0.796875 -0.328125 1.578125q-0.328125 0.78125 -1.09375 1.640625q-0.75 0.84375 -2.53125 2.34375q-1.46875 1.234375 -1.890625 1.6875q-0.421875 0.4375 -0.6875 0.875l6.546875 0z" fill-rule="nonzero"/><path fill="#ffffff" d="m246.0 93.89764l0 0c0 -10.436874 8.460754 -18.897636 18.897644 -18.897636l0 0c5.011963 0 9.818634 1.9909973 13.36264 5.5349884c3.5440063 3.5439987 5.5350037 8.350685 5.5350037 13.362648l0 0c0 10.436882 -8.460785 18.897636 -18.897644 18.897636l0 0c-10.43689 0 -18.897644 -8.460754 -18.897644 -18.897636z" fill-rule="evenodd"/><path stroke="#000000" stroke-width="3.0" stroke-linejoin="round" stroke-linecap="butt" d="m246.0 93.89764l0 0c0 -10.436874 8.460754 -18.897636 18.897644 -18.897636l0 0c5.011963 0 9.818634 1.9909973 13.36264 5.5349884c3.5440063 3.5439987 5.5350037 8.350685 5.5350037 13.362648l0 0c0 10.436882 -8.460785 18.897636 -18.897644 18.897636l0 0c-10.43689 0 -18.897644 -8.460754 -18.897644 -18.897636z" fill-rule="evenodd"/><path fill="#000000" d="m265.74103 100.817635l0 -3.203125l-5.796875 0l0 -1.5l6.09375 -8.65625l1.34375 0l0 8.65625l1.796875 0l0 1.5l-1.796875 0l0 3.203125l-1.640625 0zm0 -4.703125l0 -6.015625l-4.1875 6.015625l4.1875 0z" fill-rule="nonzero"/><path fill="#ffffff" d="m166.0 93.89764l0 0c0 -10.436874 8.460754 -18.897636 18.897644 -18.897636l0 0c5.011963 0 9.818649 1.9909973 13.36264 5.5349884c3.543991 3.5439987 5.5349884 8.350685 5.5349884 13.362648l0 0c0 10.436882 -8.460754 18.897636 -18.897629 18.897636l0 0c-10.43689 0 -18.897644 -8.460754 -18.897644 -18.897636z" fill-rule="evenodd"/><path stroke="#000000" stroke-width="3.0" stroke-linejoin="round" stroke-linecap="butt" d="m166.0 93.89764l0 0c0 -10.436874 8.460754 -18.897636 18.897644 -18.897636l0 0c5.011963 0 9.818649 1.9909973 13.36264 5.5349884c3.543991 3.5439987 5.5349884 8.350685 5.5349884 13.362648l0 0c0 10.436882 -8.460754 18.897636 -18.897629 18.897636l0 0c-10.43689 0 -18.897644 -8.460754 -18.897644 -18.897636z" fill-rule="evenodd"/><path fill="#000000" d="m180.49103 97.286385l1.640625 -0.21875q0.28125 1.40625 0.953125 2.015625q0.6875 0.609375 1.65625 0.609375q1.15625 0 1.953125 -0.796875q0.796875 -0.796875 0.796875 -1.984375q0 -1.125 -0.734375 -1.859375q-0.734375 -0.734375 -1.875 -0.734375q-0.46875 0 -1.15625 0.171875l0.1875 -1.4375q0.15625 0.015625 0.265625 0.015625q1.046875 0 1.875 -0.546875q0.84375 -0.546875 0.84375 -1.671875q0 -0.90625 -0.609375 -1.5q-0.609375 -0.59375 -1.578125 -0.59375q-0.953125 0 -1.59375 0.609375q-0.640625 0.59375 -0.8125 1.796875l-1.640625 -0.296875q0.296875 -1.640625 1.359375 -2.546875q1.0625 -0.90625 2.65625 -0.90625q1.09375 0 2.0 0.46875q0.921875 0.46875 1.40625 1.28125q0.5 0.8125 0.5 1.71875q0 0.859375 -0.46875 1.578125q-0.46875 0.703125 -1.375 1.125q1.1875 0.28125 1.84375 1.140625q0.65625 0.859375 0.65625 2.15625q0 1.734375 -1.28125 2.953125q-1.265625 1.21875 -3.21875 1.21875q-1.765625 0 -2.921875 -1.046875q-1.15625 -1.046875 -1.328125 -2.71875z" fill-rule="nonzero"/><path fill="#ffffff" d="m6.0 163.89764l0 0c0 -10.43689 8.460761 -18.897644 18.897638 -18.897644l0 0c5.011965 0 9.818651 1.9909973 13.362646 5.5349884c3.543995 3.543991 5.534992 8.3506775 5.534992 13.362656l0 0c0 10.436874 -8.460762 18.897629 -18.897638 18.897629l0 0c-10.436877 0 -18.897638 -8.460754 -18.897638 -18.897629z" fill-rule="evenodd"/><path stroke="#000000" stroke-width="3.0" stroke-linejoin="round" stroke-linecap="butt" d="m6.0 163.89764l0 0c0 -10.43689 8.460761 -18.897644 18.897638 -18.897644l0 0c5.011965 0 9.818651 1.9909973 13.362646 5.5349884c3.543995 3.543991 5.534992 8.3506775 5.534992 13.362656l0 0c0 10.436874 -8.460762 18.897629 -18.897638 18.897629l0 0c-10.436877 0 -18.897638 -8.460754 -18.897638 -18.897629z" fill-rule="evenodd"/><path fill="#000000" d="m20.600405 159.20827l0 -1.578125l8.640625 0l0 1.28125q-1.28125 1.359375 -2.53125 3.609375q-1.25 2.25 -1.9375 4.625q-0.484375 1.671875 -0.625 3.671875l-1.6875 0q0.03125 -1.578125 0.625 -3.8125q0.59375 -2.234375 1.6875 -4.296875q1.109375 -2.078125 2.359375 -3.5l-6.53125 0z" fill-rule="nonzero"/><path fill="#ffffff" d="m6.0 303.89764l0 0c0 -10.43689 8.460761 -18.897644 18.897638 -18.897644l0 0c5.011965 0 9.818651 1.9909973 13.362646 5.5350037c3.543995 3.5439758 5.534992 8.3506775 5.534992 13.36264l0 0c0 10.436859 -8.460762 18.897644 -18.897638 18.897644l0 0c-10.436877 0 -18.897638 -8.460785 -18.897638 -18.897644z" fill-rule="evenodd"/><path stroke="#000000" stroke-width="3.0" stroke-linejoin="round" stroke-linecap="butt" d="m6.0 303.89764l0 0c0 -10.43689 8.460761 -18.897644 18.897638 -18.897644l0 0c5.011965 0 9.818651 1.9909973 13.362646 5.5350037c3.543995 3.5439758 5.534992 8.3506775 5.534992 13.36264l0 0c0 10.436859 -8.460762 18.897644 -18.897638 18.897644l0 0c-10.436877 0 -18.897638 -8.460785 -18.897638 -18.897644z" fill-rule="evenodd"/><path fill="#000000" d="m21.475046 310.81763l-1.640625 0l0 -10.453125q-0.59375 0.5625 -1.5625 1.140625q-0.953125 0.5625 -1.71875 0.84375l0 -1.59375q1.375 -0.640625 2.40625 -1.5625q1.03125 -0.921875 1.453125 -1.78125l1.0625 0l0 13.40625zm12.70384 -10.078125l-1.625 0.125q-0.21875 -0.96875 -0.6249981 -1.40625q-0.65625 -0.703125 -1.640625 -0.703125q-0.78125 0 -1.375 0.4375q-0.765625 0.5625 -1.21875 1.65625q-0.453125 1.078125 -0.46875 3.078125q0.59375 -0.890625 1.453125 -1.328125q0.859375 -0.4375 1.796875 -0.4375q1.6406231 0 2.781248 1.203125q1.15625 1.203125 1.15625 3.109375q0 1.265625 -0.546875 2.34375q-0.53125 1.078125 -1.484375 1.65625q-0.9374981 0.578125 -2.140623 0.578125q-2.0625 0 -3.359375 -1.5q-1.28125 -1.515625 -1.28125 -4.984375q0 -3.875 1.421875 -5.625q1.25 -1.53125 3.375 -1.53125q1.5625 0 2.562498 0.890625q1.015625 0.875 1.21875 2.4375zm-6.687498 5.75q0 0.84375 0.359375 1.625q0.359375 0.765625 1.0 1.171875q0.640625 0.40625 1.359375 0.40625q1.03125 0 1.78125 -0.828125q0.7499981 -0.84375 0.7499981 -2.28125q0 -1.390625 -0.734375 -2.1875q-0.7343731 -0.796875 -1.8593731 -0.796875q-1.109375 0 -1.890625 0.796875q-0.765625 0.796875 -0.765625 2.09375z" fill-rule="nonzero"/><path fill="#ffffff" d="m6.0 233.89764l0 0c0 -10.43689 8.460761 -18.897644 18.897638 -18.897644l0 0c5.011965 0 9.818651 1.9909973 13.362646 5.5349884c3.543995 3.543991 5.534992 8.3506775 5.534992 13.362656l0 0c0 10.436874 -8.460762 18.897629 -18.897638 18.897629l0 0c-10.436877 0 -18.897638 -8.460754 -18.897638 -18.897629z" fill-rule="evenodd"/><path stroke="#000000" stroke-width="3.0" stroke-linejoin="round" stroke-linecap="butt" d="m6.0 233.89764l0 0c0 -10.43689 8.460761 -18.897644 18.897638 -18.897644l0 0c5.011965 0 9.818651 1.9909973 13.362646 5.5349884c3.543995 3.543991 5.534992 8.3506775 5.534992 13.362656l0 0c0 10.436874 -8.460762 18.897629 -18.897638 18.897629l0 0c-10.436877 0 -18.897638 -8.460754 -18.897638 -18.897629z" fill-rule="evenodd"/><path fill="#000000" d="m22.167757 240.81764l-1.640625 0l0 -10.453125q-0.59375 0.5625 -1.5625 1.140625q-0.953125 0.5625 -1.71875 0.84375l0 -1.59375q1.375 -0.640625 2.40625 -1.5625q1.03125 -0.921875 1.453125 -1.78125l1.0625 0l0 13.40625zm8.990295 0l-1.640625 0l0 -10.453125q-0.59375 0.5625 -1.5625 1.140625q-0.953125 0.5625 -1.71875 0.84375l0 -1.59375q1.375 -0.640625 2.40625 -1.5625q1.03125 -0.921875 1.453125 -1.78125l1.0625 0l0 13.40625z" fill-rule="nonzero"/><path fill="#ffffff" d="m86.0 233.89764l0 0c0 -10.43689 8.460762 -18.897644 18.897636 -18.897644l0 0c5.011963 0 9.818657 1.9909973 13.362648 5.5349884c3.5439987 3.543991 5.5349884 8.3506775 5.5349884 13.362656l0 0c0 10.436874 -8.460754 18.897629 -18.897636 18.897629l0 0c-10.436874 0 -18.897636 -8.460754 -18.897636 -18.897629z" fill-rule="evenodd"/><path stroke="#000000" stroke-width="3.0" stroke-linejoin="round" stroke-linecap="butt" d="m86.0 233.89764l0 0c0 -10.43689 8.460762 -18.897644 18.897636 -18.897644l0 0c5.011963 0 9.818657 1.9909973 13.362648 5.5349884c3.5439987 3.543991 5.5349884 8.3506775 5.5349884 13.362656l0 0c0 10.436874 -8.460754 18.897629 -18.897636 18.897629l0 0c-10.436874 0 -18.897636 -8.460754 -18.897636 -18.897629z" fill-rule="evenodd"/><path fill="#000000" d="m101.475044 240.81764l-1.640625 0l0 -10.453125q-0.59375 0.5625 -1.5625 1.140625q-0.953125 0.5625 -1.71875 0.84375l0 -1.59375q1.375 -0.640625 2.40625 -1.5625q1.03125 -0.921875 1.453125 -1.78125l1.0625 0l0 13.40625zm12.813217 -1.578125l0 1.578125l-8.828125 0q-0.015625 -0.59375 0.1875 -1.140625q0.34375 -0.90625 1.078125 -1.78125q0.75 -0.875 2.15625 -2.015625q2.171875 -1.78125 2.9375 -2.828125q0.765625 -1.046875 0.765625 -1.96875q0 -0.984375 -0.703125 -1.640625q-0.6875 -0.671875 -1.8125 -0.671875q-1.1875 0 -1.90625 0.71875q-0.703125 0.703125 -0.703125 1.953125l-1.6875 -0.171875q0.171875 -1.890625 1.296875 -2.875q1.140625 -0.984375 3.03125 -0.984375q1.921875 0 3.046875 1.0625q1.125 1.0625 1.125 2.640625q0 0.796875 -0.328125 1.578125q-0.328125 0.78125 -1.09375 1.640625q-0.75 0.84375 -2.53125 2.34375q-1.46875 1.234375 -1.890625 1.6875q-0.421875 0.4375 -0.6875 0.875l6.546875 0z" fill-rule="nonzero"/><path fill="#ffffff" d="m246.0 233.89764l0 0c0 -10.43689 8.460754 -18.897644 18.897644 -18.897644l0 0c5.011963 0 9.818634 1.9909973 13.36264 5.5349884c3.5440063 3.543991 5.5350037 8.3506775 5.5350037 13.362656l0 0c0 10.436874 -8.460785 18.897629 -18.897644 18.897629l0 0c-10.43689 0 -18.897644 -8.460754 -18.897644 -18.897629z" fill-rule="evenodd"/><path stroke="#000000" stroke-width="3.0" stroke-linejoin="round" stroke-linecap="butt" d="m246.0 233.89764l0 0c0 -10.43689 8.460754 -18.897644 18.897644 -18.897644l0 0c5.011963 0 9.818634 1.9909973 13.36264 5.5349884c3.5440063 3.543991 5.5350037 8.3506775 5.5350037 13.362656l0 0c0 10.436874 -8.460785 18.897629 -18.897644 18.897629l0 0c-10.43689 0 -18.897644 -8.460754 -18.897644 -18.897629z" fill-rule="evenodd"/><path fill="#000000" d="m261.47504 240.81764l-1.640625 0l0 -10.453125q-0.59375 0.5625 -1.5625 1.140625q-0.953125 0.5625 -1.71875 0.84375l0 -1.59375q1.375 -0.640625 2.40625 -1.5625q1.03125 -0.921875 1.453125 -1.78125l1.0625 0l0 13.40625zm9.453857 0l0 -3.203125l-5.796875 0l0 -1.5l6.09375 -8.65625l1.34375 0l0 8.65625l1.796875 0l0 1.5l-1.796875 0l0 3.203125l-1.640625 0zm0 -4.703125l0 -6.015625l-4.1875 6.015625l4.1875 0z" fill-rule="nonzero"/><path fill="#ffffff" d="m166.0 233.89764l0 0c0 -10.43689 8.460754 -18.897644 18.897644 -18.897644l0 0c5.011963 0 9.818649 1.9909973 13.36264 5.5349884c3.543991 3.543991 5.5349884 8.3506775 5.5349884 13.362656l0 0c0 10.436874 -8.460754 18.897629 -18.897629 18.897629l0 0c-10.43689 0 -18.897644 -8.460754 -18.897644 -18.897629z" fill-rule="evenodd"/><path stroke="#000000" stroke-width="3.0" stroke-linejoin="round" stroke-linecap="butt" d="m166.0 233.89764l0 0c0 -10.43689 8.460754 -18.897644 18.897644 -18.897644l0 0c5.011963 0 9.818649 1.9909973 13.36264 5.5349884c3.543991 3.543991 5.5349884 8.3506775 5.5349884 13.362656l0 0c0 10.436874 -8.460754 18.897629 -18.897629 18.897629l0 0c-10.43689 0 -18.897644 -8.460754 -18.897644 -18.897629z" fill-rule="evenodd"/><path fill="#000000" d="m181.47505 240.81764l-1.640625 0l0 -10.453125q-0.59375 0.5625 -1.5625 1.140625q-0.953125 0.5625 -1.71875 0.84375l0 -1.59375q1.375 -0.640625 2.40625 -1.5625q1.03125 -0.921875 1.453125 -1.78125l1.0625 0l0 13.40625zm4.203842 -3.53125l1.640625 -0.21875q0.28125 1.40625 0.953125 2.015625q0.6875 0.609375 1.65625 0.609375q1.15625 0 1.953125 -0.796875q0.796875 -0.796875 0.796875 -1.984375q0 -1.125 -0.734375 -1.859375q-0.734375 -0.734375 -1.875 -0.734375q-0.46875 0 -1.15625 0.171875l0.1875 -1.4375q0.15625 0.015625 0.265625 0.015625q1.046875 0 1.875 -0.546875q0.84375 -0.546875 0.84375 -1.671875q0 -0.90625 -0.609375 -1.5q-0.609375 -0.59375 -1.578125 -0.59375q-0.953125 0 -1.59375 0.609375q-0.640625 0.59375 -0.8125 1.796875l-1.640625 -0.296875q0.296875 -1.640625 1.359375 -2.546875q1.0625 -0.90625 2.65625 -0.90625q1.09375 0 2.0 0.46875q0.921875 0.46875 1.40625 1.28125q0.5 0.8125 0.5 1.71875q0 0.859375 -0.46875 1.578125q-0.46875 0.703125 -1.375 1.125q1.1875 0.28125 1.84375 1.140625q0.65625 0.859375 0.65625 2.15625q0 1.734375 -1.28125 2.953125q-1.265625 1.21875 -3.21875 1.21875q-1.765625 0 -2.921875 -1.046875q-1.15625 -1.046875 -1.328125 -2.71875z" fill-rule="nonzero"/><path fill="#ffffff" d="m86.0 303.89764l0 0c0 -10.43689 8.460762 -18.897644 18.897636 -18.897644l0 0c5.011963 0 9.818657 1.9909973 13.362648 5.5350037c3.5439987 3.5439758 5.5349884 8.3506775 5.5349884 13.36264l0 0c0 10.436859 -8.460754 18.897644 -18.897636 18.897644l0 0c-10.436874 0 -18.897636 -8.460785 -18.897636 -18.897644z" fill-rule="evenodd"/><path stroke="#000000" stroke-width="3.0" stroke-linejoin="round" stroke-linecap="butt" d="m86.0 303.89764l0 0c0 -10.43689 8.460762 -18.897644 18.897636 -18.897644l0 0c5.011963 0 9.818657 1.9909973 13.362648 5.5350037c3.5439987 3.5439758 5.5349884 8.3506775 5.5349884 13.36264l0 0c0 10.436859 -8.460754 18.897644 -18.897636 18.897644l0 0c-10.436874 0 -18.897636 -8.460785 -18.897636 -18.897644z" fill-rule="evenodd"/><path fill="#000000" d="m101.475044 310.81763l-1.640625 0l0 -10.453125q-0.59375 0.5625 -1.5625 1.140625q-0.953125 0.5625 -1.71875 0.84375l0 -1.59375q1.375 -0.640625 2.40625 -1.5625q1.03125 -0.921875 1.453125 -1.78125l1.0625 0l0 13.40625zm4.313217 -11.609375l0 -1.578125l8.640625 0l0 1.28125q-1.28125 1.359375 -2.53125 3.609375q-1.25 2.25 -1.9375 4.625q-0.484375 1.671875 -0.625 3.671875l-1.6875 0q0.03125 -1.578125 0.625 -3.8125q0.59375 -2.234375 1.6875 -4.296875q1.109375 -2.078125 2.359375 -3.5l-6.53125 0z" fill-rule="nonzero"/><path fill="#ffffff" d="m166.0 303.89764l0 0c0 -10.43689 8.460754 -18.897644 18.897644 -18.897644l0 0c5.011963 0 9.818649 1.9909973 13.36264 5.5350037c3.543991 3.5439758 5.5349884 8.3506775 5.5349884 13.36264l0 0c0 10.436859 -8.460754 18.897644 -18.897629 18.897644l0 0c-10.43689 0 -18.897644 -8.460785 -18.897644 -18.897644z" fill-rule="evenodd"/><path stroke="#000000" stroke-width="3.0" stroke-linejoin="round" stroke-linecap="butt" d="m166.0 303.89764l0 0c0 -10.43689 8.460754 -18.897644 18.897644 -18.897644l0 0c5.011963 0 9.818649 1.9909973 13.36264 5.5350037c3.543991 3.5439758 5.5349884 8.3506775 5.5349884 13.36264l0 0c0 10.436859 -8.460754 18.897644 -18.897629 18.897644l0 0c-10.43689 0 -18.897644 -8.460785 -18.897644 -18.897644z" fill-rule="evenodd"/><path fill="#000000" d="m181.47505 310.81763l-1.640625 0l0 -10.453125q-0.59375 0.5625 -1.5625 1.140625q-0.953125 0.5625 -1.71875 0.84375l0 -1.59375q1.375 -0.640625 2.40625 -1.5625q1.03125 -0.921875 1.453125 -1.78125l1.0625 0l0 13.40625zm6.719467 -7.234375q-1.015625 -0.375 -1.515625 -1.0625q-0.484375 -0.703125 -0.484375 -1.671875q0 -1.453125 1.046875 -2.4375q1.046875 -1.0 2.78125 -1.0q1.75 0 2.8125 1.015625q1.078125 1.015625 1.078125 2.46875q0 0.9375 -0.5 1.625q-0.484375 0.6875 -1.46875 1.0625q1.21875 0.390625 1.859375 1.28125q0.65625 0.890625 0.65625 2.140625q0 1.703125 -1.21875 2.875q-1.21875 1.171875 -3.1875 1.171875q-1.984375 0 -3.203125 -1.171875q-1.203125 -1.171875 -1.203125 -2.921875q0 -1.3125 0.65625 -2.1875q0.671875 -0.875 1.890625 -1.1875zm-0.328125 -2.78125q0 0.9375 0.609375 1.546875q0.609375 0.59375 1.59375 0.59375q0.9375 0 1.546875 -0.59375q0.609375 -0.59375 0.609375 -1.453125q0 -0.90625 -0.625 -1.515625q-0.625 -0.625 -1.5625 -0.625q-0.9375 0 -1.5625 0.609375q-0.609375 0.59375 -0.609375 1.4375zm-0.53125 6.15625q0 0.703125 0.328125 1.359375q0.34375 0.65625 1.0 1.015625q0.65625 0.359375 1.40625 0.359375q1.171875 0 1.9375 -0.75q0.765625 -0.75 0.765625 -1.921875q0 -1.1875 -0.796875 -1.953125q-0.78125 -0.78125 -1.953125 -0.78125q-1.15625 0 -1.921875 0.765625q-0.765625 0.765625 -0.765625 1.90625z" fill-rule="nonzero"/><path fill="#ffffff" d="m486.0 303.89764l0 0c0 -10.43689 8.460754 -18.897644 18.897644 -18.897644l0 0c5.011963 0 9.818665 1.9909973 13.362671 5.5350037c3.5439453 3.5439758 5.534973 8.3506775 5.534973 13.36264l0 0c0 10.436859 -8.460754 18.897644 -18.897644 18.897644l0 0c-10.43689 0 -18.897644 -8.460785 -18.897644 -18.897644z" fill-rule="evenodd"/><path stroke="#000000" stroke-width="3.0" stroke-linejoin="round" stroke-linecap="butt" d="m486.0 303.89764l0 0c0 -10.43689 8.460754 -18.897644 18.897644 -18.897644l0 0c5.011963 0 9.818665 1.9909973 13.362671 5.5350037c3.5439453 3.5439758 5.534973 8.3506775 5.534973 13.36264l0 0c0 10.436859 -8.460754 18.897644 -18.897644 18.897644l0 0c-10.43689 0 -18.897644 -8.460785 -18.897644 -18.897644z" fill-rule="evenodd"/><path fill="#000000" d="m503.91254 309.2395l0 1.578125l-8.828125 0q-0.015625 -0.59375 0.1875 -1.140625q0.34375 -0.90625 1.078125 -1.78125q0.75 -0.875 2.15625 -2.015625q2.171875 -1.78125 2.9375 -2.828125q0.765625 -1.046875 0.765625 -1.96875q0 -0.984375 -0.703125 -1.640625q-0.6875 -0.671875 -1.8125 -0.671875q-1.1875 0 -1.90625 0.71875q-0.703125 0.703125 -0.703125 1.953125l-1.6875 -0.171875q0.171875 -1.890625 1.296875 -2.875q1.140625 -0.984375 3.03125 -0.984375q1.921875 0 3.046875 1.0625q1.125 1.0625 1.125 2.640625q0 0.796875 -0.328125 1.578125q-0.328125 0.78125 -1.09375 1.640625q-0.75 0.84375 -2.53125 2.34375q-1.46875 1.234375 -1.890625 1.6875q-0.421875 0.4375 -0.6875 0.875l6.546875 0zm7.9382324 1.578125l-1.640625 0l0 -10.453125q-0.59375 0.5625 -1.5625 1.140625q-0.953125 0.5625 -1.71875 0.84375l0 -1.59375q1.375 -0.640625 2.40625 -1.5625q1.03125 -0.921875 1.453125 -1.78125l1.0625 0l0 13.40625z" fill-rule="nonzero"/><path fill="#ffffff" d="m406.0 303.89764l0 0c0 -10.43689 8.460754 -18.897644 18.897644 -18.897644l0 0c5.011963 0 9.818634 1.9909973 13.36264 5.5350037c3.5440063 3.5439758 5.5350037 8.3506775 5.5350037 13.36264l0 0c0 10.436859 -8.460785 18.897644 -18.897644 18.897644l0 0c-10.43689 0 -18.897644 -8.460785 -18.897644 -18.897644z" fill-rule="evenodd"/><path stroke="#000000" stroke-width="3.0" stroke-linejoin="round" stroke-linecap="butt" d="m406.0 303.89764l0 0c0 -10.43689 8.460754 -18.897644 18.897644 -18.897644l0 0c5.011963 0 9.818634 1.9909973 13.36264 5.5350037c3.5440063 3.5439758 5.5350037 8.3506775 5.5350037 13.36264l0 0c0 10.436859 -8.460785 18.897644 -18.897644 18.897644l0 0c-10.43689 0 -18.897644 -8.460785 -18.897644 -18.897644z" fill-rule="evenodd"/><path fill="#000000" d="m423.91254 309.2395l0 1.578125l-8.828125 0q-0.015625 -0.59375 0.1875 -1.140625q0.34375 -0.90625 1.078125 -1.78125q0.75 -0.875 2.15625 -2.015625q2.171875 -1.78125 2.9375 -2.828125q0.765625 -1.046875 0.765625 -1.96875q0 -0.984375 -0.703125 -1.640625q-0.6875 -0.671875 -1.8125 -0.671875q-1.1875 0 -1.90625 0.71875q-0.703125 0.703125 -0.703125 1.953125l-1.6875 -0.171875q0.171875 -1.890625 1.296875 -2.875q1.140625 -0.984375 3.03125 -0.984375q1.921875 0 3.046875 1.0625q1.125 1.0625 1.125 2.640625q0 0.796875 -0.328125 1.578125q-0.328125 0.78125 -1.09375 1.640625q-0.75 0.84375 -2.53125 2.34375q-1.46875 1.234375 -1.890625 1.6875q-0.421875 0.4375 -0.6875 0.875l6.546875 0zm1.7663574 -5.015625q0 -2.359375 0.484375 -3.796875q0.484375 -1.453125 1.4375 -2.234375q0.96875 -0.78125 2.421875 -0.78125q1.078125 0 1.890625 0.4375q0.8125 0.421875 1.328125 1.25q0.53125 0.8125 0.828125 1.984375q0.3125 1.15625 0.3125 3.140625q0 2.359375 -0.484375 3.8125q-0.484375 1.4375 -1.453125 2.234375q-0.953125 0.78125 -2.421875 0.78125q-1.921875 0 -3.03125 -1.390625q-1.3125 -1.671875 -1.3125 -5.4375zm1.671875 0q0 3.296875 0.765625 4.390625q0.78125 1.078125 1.90625 1.078125q1.140625 0 1.90625 -1.09375q0.765625 -1.09375 0.765625 -4.375q0 -3.296875 -0.765625 -4.375q-0.765625 -1.078125 -1.921875 -1.078125q-1.125 0 -1.796875 0.953125q-0.859375 1.21875 -0.859375 4.5z" fill-rule="nonzero"/></g></svg>