<svg version="1.1" viewBox="0.0 0.0 680.7821522309712 383.5721784776903" fill="none" stroke="none" stroke-linecap="square" stroke-miterlimit="10" xmlns:xlink="http://www.w3.org/1999/xlink" xmlns="http://www.w3.org/2000/svg"><clipPath id="p.0"><path d="m0 0l680.78217 0l0 383.57217l-680.78217 0l0 -383.57217z" clip-rule="nonzero"/></clipPath><g clip-path="url(#p.0)"><path fill="#000000" fill-opacity="0.0" d="m0 0l680.78217 0l0 383.57217l-680.78217 0z" fill-rule="evenodd"/><path fill="#ffffff" d="m5.149606 25.141733l0 0c0 -10.436878 8.46076 -18.897638 18.897638 -18.897638l0 0c5.011965 0 9.818653 1.9909959 13.362648 5.53499c3.543995 3.543995 5.5349884 8.350682 5.5349884 13.362649l0 0c0 10.436876 -8.460762 18.897638 -18.897636 18.897638l0 0c-10.436878 0 -18.897638 -8.460762 -18.897638 -18.897638z" fill-rule="evenodd"/><path stroke="#000000" stroke-width="3.0" stroke-linejoin="round" stroke-linecap="butt" d="m5.149606 25.141733l0 0c0 -10.436878 8.46076 -18.897638 18.897638 -18.897638l0 0c5.011965 0 9.818653 1.9909959 13.362648 5.53499c3.543995 3.543995 5.5349884 8.350682 5.5349884 13.362649l0 0c0 10.436876 -8.460762 18.897638 -18.897636 18.897638l0 0c-10.436878 0 -18.897638 -8.460762 -18.897638 -18.897638z" fill-rule="evenodd"/><path fill="#000000" d="m28.140636 21.983606l-1.625 0.125q-0.21875 -0.96875 -0.625 -1.40625q-0.65625 -0.703125 -1.640625 -0.703125q-0.78125 0 -1.375 0.4375q-0.765625 0.5625 -1.21875 1.65625q-0.453125 1.078125 -0.46875 3.078125q0.59375 -0.890625 1.453125 -1.328125q0.859375 -0.4375 1.796875 -0.4375q1.640625 0 2.78125 1.203125q1.15625 1.203125 1.15625 3.109375q0 1.265625 -0.546875 2.34375q-0.53125 1.078125 -1.484375 1.65625q-0.9375 0.5781231 -2.140625 0.5781231q-2.0625 0 -3.359375 -1.4999981q-1.28125 -1.515625 -1.28125 -4.984375q0 -3.875 1.421875 -5.625q1.25 -1.53125 3.375 -1.53125q1.5625 0 2.5625 0.890625q1.015625 0.875 1.21875 2.4375zm-6.6875 5.75q0 0.84375 0.359375 1.625q0.359375 0.765625 1.0 1.171875q0.640625 0.40625 1.359375 0.40625q1.03125 0 1.78125 -0.828125q0.75 -0.84375 0.75 -2.28125q0 -1.390625 -0.734375 -2.1875q-0.734375 -0.796875 -1.859375 -0.796875q-1.109375 0 -1.890625 0.796875q-0.765625 0.796875 -0.765625 2.09375z" fill-rule="nonzero"/><path fill="#ffffff" d="m65.608925 66.46457l0 0c0 -10.436878 8.460762 -18.89764 18.897636 -18.89764l0 0c5.011963 0 9.818657 1.9909973 13.362648 5.5349884c3.543991 3.543995 5.5349884 8.350685 5.5349884 13.362652l0 0c0 10.436874 -8.460762 18.897636 -18.897636 18.897636l0 0c-10.436874 0 -18.897636 -8.460762 -18.897636 -18.897636z" fill-rule="evenodd"/><path stroke="#000000" stroke-width="3.0" stroke-linejoin="round" stroke-linecap="butt" d="m65.608925 66.46457l0 0c0 -10.436878 8.460762 -18.89764 18.897636 -18.89764l0 0c5.011963 0 9.818657 1.9909973 13.362648 5.5349884c3.543991 3.543995 5.5349884 8.350685 5.5349884 13.362652l0 0c0 10.436874 -8.460762 18.897636 -18.897636 18.897636l0 0c-10.436874 0 -18.897636 -8.460762 -18.897636 -18.897636z" fill-rule="evenodd"/><path fill="#000000" d="m80.20933 61.77519l0 -1.578125l8.640625 0l0 1.28125q-1.28125 1.359375 -2.53125 3.6093788q-1.25 2.25 -1.9375 4.625q-0.484375 1.671875 -0.625 3.671875l-1.6875 0q0.03125 -1.578125 0.625 -3.8125q0.59375 -2.234375 1.6875 -4.296875q1.109375 -2.0781288 2.359375 -3.5000038l-6.53125 0z" fill-rule="nonzero"/><path fill="#ffffff" d="m5.149606 109.53018l0 0c0 -10.436874 8.46076 -18.897636 18.897638 -18.897636l0 0c5.011965 0 9.818653 1.9909973 13.362648 5.5349884c3.543995 3.5439987 5.5349884 8.350685 5.5349884 13.362648l0 0c0 10.436882 -8.460762 18.897644 -18.897636 18.897644l0 0c-10.436878 0 -18.897638 -8.460762 -18.897638 -18.897644z" fill-rule="evenodd"/><path stroke="#000000" stroke-width="3.0" stroke-linejoin="round" stroke-linecap="butt" d="m5.149606 109.53018l0 0c0 -10.436874 8.46076 -18.897636 18.897638 -18.897636l0 0c5.011965 0 9.818653 1.9909973 13.362648 5.5349884c3.543995 3.5439987 5.5349884 8.350685 5.5349884 13.362648l0 0c0 10.436882 -8.460762 18.897644 -18.897636 18.897644l0 0c-10.436878 0 -18.897638 -8.460762 -18.897638 -18.897644z" fill-rule="evenodd"/><path fill="#000000" d="m21.317364 116.45018l-1.640625 0l0 -10.453125q-0.59375 0.5625 -1.5625 1.140625q-0.953125 0.5625 -1.71875 0.84375l0 -1.59375q1.375 -0.640625 2.40625 -1.5625q1.03125 -0.921875 1.453125 -1.78125l1.0625 0l0 13.40625zm8.990295 0l-1.640625 0l0 -10.453125q-0.59375 0.5625 -1.5625 1.140625q-0.953125 0.5625 -1.71875 0.84375l0 -1.59375q1.375 -0.640625 2.40625 -1.5625q1.03125 -0.921875 1.453125 -1.78125l1.0625 0l0 13.40625z" fill-rule="nonzero"/><path fill="#ffffff" d="m71.14173 211.35695l0 0c0 -10.436874 8.460762 -18.897629 18.897636 -18.897629l0 0c5.0119705 0 9.818657 1.9909973 13.362648 5.5349884c3.5439987 3.543991 5.5349884 8.3506775 5.5349884 13.36264l0 0c0 10.43689 -8.460754 18.897644 -18.897636 18.897644l0 0c-10.436874 0 -18.897636 -8.460754 -18.897636 -18.897644z" fill-rule="evenodd"/><path stroke="#000000" stroke-width="3.0" stroke-linejoin="round" stroke-linecap="butt" d="m71.14173 211.35695l0 0c0 -10.436874 8.460762 -18.897629 18.897636 -18.897629l0 0c5.0119705 0 9.818657 1.9909973 13.362648 5.5349884c3.5439987 3.543991 5.5349884 8.3506775 5.5349884 13.36264l0 0c0 10.43689 -8.460754 18.897644 -18.897636 18.897644l0 0c-10.436874 0 -18.897636 -8.460754 -18.897636 -18.897644z" fill-rule="evenodd"/><path fill="#000000" d="m86.616776 218.27695l-1.640625 0l0 -10.453125q-0.59375 0.5625 -1.5625 1.140625q-0.953125 0.5625 -1.71875 0.84375l0 -1.59375q1.375 -0.640625 2.40625 -1.5625q1.03125 -0.921875 1.453125 -1.78125l1.0625 0l0 13.40625zm12.813217 -1.578125l0 1.578125l-8.828125 0q-0.015625 -0.59375 0.1875 -1.140625q0.34375 -0.90625 1.078125 -1.78125q0.75 -0.875 2.15625 -2.015625q2.171875 -1.78125 2.9375 -2.828125q0.765625 -1.046875 0.765625 -1.96875q0 -0.984375 -0.703125 -1.640625q-0.6875 -0.671875 -1.8125 -0.671875q-1.1875 0 -1.90625 0.71875q-0.703125 0.703125 -0.703125 1.953125l-1.6875 -0.171875q0.171875 -1.890625 1.296875 -2.875q1.140625 -0.984375 3.03125 -0.984375q1.921875 0 3.046875 1.0625q1.125 1.0625 1.125 2.640625q0 0.796875 -0.328125 1.578125q-0.328125 0.78125 -1.09375 1.640625q-0.75 0.84375 -2.53125 2.34375q-1.46875 1.234375 -1.890625 1.6875q-0.421875 0.4375 -0.6875 0.875l6.546875 0z" fill-rule="nonzero"/><path fill="#ffffff" d="m210.86876 83.07087l0 0c0 -10.436882 8.46077 -18.897644 18.897644 -18.897644l0 0c5.011963 0 9.818649 1.9909973 13.362656 5.534996c3.543991 3.543991 5.5349884 8.3506775 5.5349884 13.362648l0 0c0 10.436874 -8.46077 18.897636 -18.897644 18.897636l0 0c-10.436874 0 -18.897644 -8.460762 -18.897644 -18.897636z" fill-rule="evenodd"/><path stroke="#000000" stroke-width="3.0" stroke-linejoin="round" stroke-linecap="butt" d="m210.86876 83.07087l0 0c0 -10.436882 8.46077 -18.897644 18.897644 -18.897644l0 0c5.011963 0 9.818649 1.9909973 13.362656 5.534996c3.543991 3.543991 5.5349884 8.3506775 5.5349884 13.362648l0 0c0 10.436874 -8.46077 18.897636 -18.897644 18.897636l0 0c-10.436874 0 -18.897644 -8.460762 -18.897644 -18.897636z" fill-rule="evenodd"/><path fill="#000000" d="m230.6098 89.99087l0 -3.203125l-5.796875 0l0 -1.5l6.09375 -8.65625l1.34375 0l0 8.65625l1.796875 0l0 1.5l-1.796875 0l0 3.203125l-1.640625 0zm0 -4.703125l0 -6.015625l-4.1875 6.015625l4.1875 0z" fill-rule="nonzero"/><path fill="#ffffff" d="m306.1942 118.14173l0 0c0 -10.436874 8.460785 -18.897636 18.897644 -18.897636l0 0c5.011963 0 9.818665 1.9909973 13.36264 5.5349884c3.5440063 3.5439987 5.5350037 8.350685 5.5350037 13.362648l0 0c0 10.436882 -8.460754 18.897636 -18.897644 18.897636l0 0c-10.436859 0 -18.897644 -8.460754 -18.897644 -18.897636z" fill-rule="evenodd"/><path stroke="#000000" stroke-width="3.0" stroke-linejoin="round" stroke-linecap="butt" d="m306.1942 118.14173l0 0c0 -10.436874 8.460785 -18.897636 18.897644 -18.897636l0 0c5.011963 0 9.818665 1.9909973 13.36264 5.5349884c3.5440063 3.5439987 5.5350037 8.350685 5.5350037 13.362648l0 0c0 10.436882 -8.460754 18.897636 -18.897644 18.897636l0 0c-10.436859 0 -18.897644 -8.460754 -18.897644 -18.897636z" fill-rule="evenodd"/><path fill="#000000" d="m320.68524 118.46798q0 -2.359375 0.484375 -3.796875q0.484375 -1.453125 1.4375 -2.234375q0.96875 -0.78125 2.421875 -0.78125q1.078125 0 1.890625 0.4375q0.8125 0.421875 1.328125 1.25q0.53125 0.8125 0.828125 1.984375q0.3125 1.15625 0.3125 3.140625q0 2.359375 -0.484375 3.8125q-0.484375 1.4375 -1.453125 2.234375q-0.953125 0.78125 -2.421875 0.78125q-1.921875 0 -3.03125 -1.390625q-1.3125 -1.671875 -1.3125 -5.4375zm1.671875 0q0 3.296875 0.765625 4.390625q0.78125 1.078125 1.90625 1.078125q1.140625 0 1.90625 -1.09375q0.765625 -1.09375 0.765625 -4.375q0 -3.296875 -0.765625 -4.375q-0.765625 -1.078125 -1.921875 -1.078125q-1.125 0 -1.796875 0.953125q-0.859375 1.21875 -0.859375 4.5z" fill-rule="nonzero"/><path fill="#ffffff" d="m210.86876 160.76903l0 0c0 -10.436874 8.46077 -18.897644 18.897644 -18.897644l0 0c5.011963 0 9.818649 1.9909973 13.362656 5.5350037c3.543991 3.543991 5.5349884 8.3506775 5.5349884 13.36264l0 0c0 10.436874 -8.46077 18.897644 -18.897644 18.897644l0 0c-10.436874 0 -18.897644 -8.46077 -18.897644 -18.897644z" fill-rule="evenodd"/><path stroke="#000000" stroke-width="3.0" stroke-linejoin="round" stroke-linecap="butt" d="m210.86876 160.76903l0 0c0 -10.436874 8.46077 -18.897644 18.897644 -18.897644l0 0c5.011963 0 9.818649 1.9909973 13.362656 5.5350037c3.543991 3.543991 5.5349884 8.3506775 5.5349884 13.36264l0 0c0 10.436874 -8.46077 18.897644 -18.897644 18.897644l0 0c-10.436874 0 -18.897644 -8.46077 -18.897644 -18.897644z" fill-rule="evenodd"/><path fill="#000000" d="m227.87543 160.45465q-1.015625 -0.375 -1.515625 -1.0625q-0.484375 -0.703125 -0.484375 -1.671875q0 -1.453125 1.046875 -2.4375q1.046875 -1.0 2.78125 -1.0q1.75 0 2.8125 1.015625q1.078125 1.015625 1.078125 2.46875q0 0.9375 -0.5 1.625q-0.484375 0.6875 -1.46875 1.0625q1.21875 0.390625 1.859375 1.28125q0.65625 0.890625 0.65625 2.140625q0 1.703125 -1.21875 2.875q-1.21875 1.171875 -3.1875 1.171875q-1.984375 0 -3.203125 -1.171875q-1.203125 -1.171875 -1.203125 -2.921875q0 -1.3125 0.65625 -2.1875q0.671875 -0.875 1.890625 -1.1875zm-0.328125 -2.78125q0 0.9375 0.609375 1.546875q0.609375 0.59375 1.59375 0.59375q0.9375 0 1.546875 -0.59375q0.609375 -0.59375 0.609375 -1.453125q0 -0.90625 -0.625 -1.515625q-0.625 -0.625 -1.5625 -0.625q-0.9375 0 -1.5625 0.609375q-0.609375 0.59375 -0.609375 1.4375zm-0.53125 6.15625q0 0.703125 0.328125 1.359375q0.34375 0.65625 1.0 1.015625q0.65625 0.359375 1.40625 0.359375q1.171875 0 1.9375 -0.75q0.765625 -0.75 0.765625 -1.921875q0 -1.1875 -0.796875 -1.953125q-0.78125 -0.78125 -1.953125 -0.78125q-1.15625 0 -1.921875 0.765625q-0.765625 0.765625 -0.765625 1.90625z" fill-rule="nonzero"/><path fill="#ffffff" d="m246.02362 248.45145l0 0c0 -10.436874 8.46077 -18.897644 18.897644 -18.897644l0 0c5.011963 0 9.818634 1.9909973 13.36264 5.5349884c3.5440063 3.5440063 5.5350037 8.350693 5.5350037 13.362656l0 0c0 10.436859 -8.460785 18.897644 -18.897644 18.897644l0 0c-10.436874 0 -18.897644 -8.460785 -18.897644 -18.897644z" fill-rule="evenodd"/><path stroke="#000000" stroke-width="3.0" stroke-linejoin="round" stroke-linecap="butt" d="m246.02362 248.45145l0 0c0 -10.436874 8.46077 -18.897644 18.897644 -18.897644l0 0c5.011963 0 9.818634 1.9909973 13.36264 5.5349884c3.5440063 3.5440063 5.5350037 8.350693 5.5350037 13.362656l0 0c0 10.436859 -8.460785 18.897644 -18.897644 18.897644l0 0c-10.436874 0 -18.897644 -8.460785 -18.897644 -18.897644z" fill-rule="evenodd"/><path fill="#000000" d="m266.68652 255.37144l-1.640625 0l0 -10.453125q-0.59375 0.5625 -1.5625 1.140625q-0.953125 0.5625 -1.71875 0.84375l0 -1.59375q1.375 -0.640625 2.40625 -1.5625q1.03125 -0.921875 1.453125 -1.78125l1.0625 0l0 13.40625z" fill-rule="nonzero"/><path fill="#ffffff" d="m246.02362 318.81628l0 0c0 -10.43689 8.46077 -18.897644 18.897644 -18.897644l0 0c5.011963 0 9.818634 1.9909973 13.36264 5.534973c3.5440063 3.5440063 5.5350037 8.350708 5.5350037 13.362671l0 0c0 10.436859 -8.460785 18.897614 -18.897644 18.897614l0 0c-10.436874 0 -18.897644 -8.460754 -18.897644 -18.897614z" fill-rule="evenodd"/><path stroke="#000000" stroke-width="3.0" stroke-linejoin="round" stroke-linecap="butt" d="m246.02362 318.81628l0 0c0 -10.43689 8.46077 -18.897644 18.897644 -18.897644l0 0c5.011963 0 9.818634 1.9909973 13.36264 5.534973c3.5440063 3.5440063 5.5350037 8.350708 5.5350037 13.362671l0 0c0 10.436859 -8.460785 18.897614 -18.897644 18.897614l0 0c-10.436874 0 -18.897644 -8.460754 -18.897644 -18.897614z" fill-rule="evenodd"/><path fill="#000000" d="m260.51465 322.23627l1.71875 -0.140625q0.1875 1.25 0.875 1.890625q0.703125 0.625 1.6875 0.625q1.1875 0 2.0 -0.890625q0.828125 -0.890625 0.828125 -2.359375q0 -1.40625 -0.796875 -2.21875q-0.78125 -0.8125 -2.0625 -0.8125q-0.78125 0 -1.421875 0.359375q-0.640625 0.359375 -1.0 0.9375l-1.546875 -0.203125l1.296875 -6.859375l6.640625 0l0 1.5625l-5.328125 0l-0.71875 3.59375q1.203125 -0.84375 2.515625 -0.84375q1.75 0 2.953125 1.21875q1.203125 1.203125 1.203125 3.109375q0 1.8125 -1.046875 3.140625q-1.296875 1.625 -3.515625 1.625q-1.8125 0 -2.96875 -1.015625q-1.15625 -1.03125 -1.3125 -2.71875z" fill-rule="nonzero"/><path fill="#ffffff" d="m162.0315 351.0761l0 0c0 -10.436859 8.46077 -18.897644 18.897644 -18.897644l0 0c5.011963 0 9.818649 1.9909973 13.36264 5.5350037c3.543991 3.5440063 5.5349884 8.3506775 5.5349884 13.36264l0 0c0 10.43689 -8.460754 18.897644 -18.897629 18.897644l0 0c-10.436874 0 -18.897644 -8.460754 -18.897644 -18.897644z" fill-rule="evenodd"/><path stroke="#000000" stroke-width="3.0" stroke-linejoin="round" stroke-linecap="butt" d="m162.0315 351.0761l0 0c0 -10.436859 8.46077 -18.897644 18.897644 -18.897644l0 0c5.011963 0 9.818649 1.9909973 13.36264 5.5350037c3.543991 3.5440063 5.5349884 8.3506775 5.5349884 13.36264l0 0c0 10.43689 -8.460754 18.897644 -18.897629 18.897644l0 0c-10.436874 0 -18.897644 -8.460754 -18.897644 -18.897644z" fill-rule="evenodd"/><path fill="#000000" d="m177.50655 357.99612l-1.640625 0l0 -10.453125q-0.59375 0.5625 -1.5625 1.140625q-0.953125 0.5625 -1.71875 0.84375l0 -1.59375q1.375 -0.640625 2.40625 -1.5625q1.03125 -0.921875 1.453125 -1.78125l1.0625 0l0 13.40625zm4.313217 -11.609375l0 -1.578125l8.640625 0l0 1.28125q-1.28125 1.359375 -2.53125 3.609375q-1.25 2.25 -1.9375 4.625q-0.484375 1.671875 -0.625 3.671875l-1.6875 0q0.03125 -1.578125 0.625 -3.8125q0.59375 -2.234375 1.6875 -4.296875q1.109375 -2.078125 2.359375 -3.5l-6.53125 0z" fill-rule="nonzero"/><path fill="#ffffff" d="m388.38846 85.874016l0 0c0 -10.436874 8.460754 -18.897636 18.897644 -18.897636l0 0c5.011963 0 9.818634 1.9909973 13.36264 5.5349884c3.5439758 3.543991 5.534973 8.350685 5.534973 13.362648l0 0c0 10.436874 -8.460754 18.897636 -18.897614 18.897636l0 0c-10.43689 0 -18.897644 -8.460762 -18.897644 -18.897636z" fill-rule="evenodd"/><path stroke="#000000" stroke-width="3.0" stroke-linejoin="round" stroke-linecap="butt" d="m388.38846 85.874016l0 0c0 -10.436874 8.460754 -18.897636 18.897644 -18.897636l0 0c5.011963 0 9.818634 1.9909973 13.36264 5.5349884c3.5439758 3.543991 5.534973 8.350685 5.534973 13.362648l0 0c0 10.436874 -8.460754 18.897636 -18.897614 18.897636l0 0c-10.43689 0 -18.897644 -8.460762 -18.897644 -18.897636z" fill-rule="evenodd"/><path fill="#000000" d="m403.8635 92.794014l-1.640625 0l0 -10.453125q-0.59375 0.5625 -1.5625 1.140625q-0.953125 0.5625 -1.71875 0.84375l0 -1.59375q1.375 -0.640625 2.40625 -1.5625q1.03125 -0.921875 1.453125 -1.78125l1.0625 0l0 13.40625zm4.2038574 -3.53125l1.640625 -0.21875q0.28125 1.40625 0.953125 2.015625q0.6875 0.609375 1.65625 0.609375q1.15625 0 1.953125 -0.796875q0.796875 -0.796875 0.796875 -1.984375q0 -1.125 -0.734375 -1.859375q-0.734375 -0.734375 -1.875 -0.734375q-0.46875 0 -1.15625 0.171875l0.1875 -1.4375q0.15625 0.015625 0.265625 0.015625q1.046875 0 1.875 -0.546875q0.84375 -0.546875 0.84375 -1.671875q0 -0.90625 -0.609375 -1.5q-0.609375 -0.59375 -1.578125 -0.59375q-0.953125 0 -1.59375 0.609375q-0.640625 0.59375 -0.8125 1.796875l-1.640625 -0.296875q0.296875 -1.640625 1.359375 -2.546875q1.0625 -0.90625 2.65625 -0.90625q1.09375 0 2.0 0.46875q0.921875 0.46875 1.40625 1.28125q0.5 0.8125 0.5 1.71875q0 0.859375 -0.46875 1.578125q-0.46875 0.703125 -1.375 1.125q1.1875 0.28125 1.84375 1.140625q0.65625 0.859375 0.65625 2.15625q0 1.734375 -1.28125 2.953125q-1.265625 1.21875 -3.21875 1.21875q-1.765625 0 -2.921875 -1.046875q-1.15625 -1.046875 -1.328125 -2.71875z" fill-rule="nonzero"/><path fill="#ffffff" d="m381.55643 173.55905l0 0c0 -10.436874 8.460754 -18.897629 18.897644 -18.897629l0 0c5.011963 0 9.818665 1.9909973 13.36264 5.5349884c3.5440063 3.543991 5.5350037 8.3506775 5.5350037 13.36264l0 0c0 10.436874 -8.460785 18.897644 -18.897644 18.897644l0 0c-10.43689 0 -18.897644 -8.46077 -18.897644 -18.897644z" fill-rule="evenodd"/><path stroke="#000000" stroke-width="3.0" stroke-linejoin="round" stroke-linecap="butt" d="m381.55643 173.55905l0 0c0 -10.436874 8.460754 -18.897629 18.897644 -18.897629l0 0c5.011963 0 9.818665 1.9909973 13.36264 5.5349884c3.5440063 3.543991 5.5350037 8.3506775 5.5350037 13.36264l0 0c0 10.436874 -8.460785 18.897644 -18.897644 18.897644l0 0c-10.43689 0 -18.897644 -8.46077 -18.897644 -18.897644z" fill-rule="evenodd"/><path fill="#000000" d="m397.03146 180.47905l-1.640625 0l0 -10.453125q-0.59375 0.5625 -1.5625 1.140625q-0.953125 0.5625 -1.71875 0.84375l0 -1.59375q1.375 -0.640625 2.40625 -1.5625q1.03125 -0.921875 1.453125 -1.78125l1.0625 0l0 13.40625zm9.453857 0l0 -3.203125l-5.796875 0l0 -1.5l6.09375 -8.65625l1.34375 0l0 8.65625l1.796875 0l0 1.5l-1.796875 0l0 3.203125l-1.640625 0zm0 -4.703125l0 -6.015625l-4.1875 6.015625l4.1875 0z" fill-rule="nonzero"/><path fill="#ffffff" d="m315.20734 260.97113l0 0c0 -10.436874 8.460785 -18.897644 18.897644 -18.897644l0 0c5.011963 0 9.818665 1.9909973 13.36264 5.5349884c3.5440063 3.5440063 5.5350037 8.350693 5.5350037 13.362656l0 0c0 10.43689 -8.460754 18.897644 -18.897644 18.897644l0 0c-10.436859 0 -18.897644 -8.460754 -18.897644 -18.897644z" fill-rule="evenodd"/><path stroke="#000000" stroke-width="3.0" stroke-linejoin="round" stroke-linecap="butt" d="m315.20734 260.97113l0 0c0 -10.436874 8.460785 -18.897644 18.897644 -18.897644l0 0c5.011963 0 9.818665 1.9909973 13.36264 5.5349884c3.5440063 3.5440063 5.5350037 8.350693 5.5350037 13.362656l0 0c0 10.43689 -8.460754 18.897644 -18.897644 18.897644l0 0c-10.436859 0 -18.897644 -8.460754 -18.897644 -18.897644z" fill-rule="evenodd"/><path fill="#000000" d="m330.6824 267.8911l-1.640625 0l0 -10.453125q-0.59375 0.5625 -1.5625 1.140625q-0.953125 0.5625 -1.71875 0.84375l0 -1.59375q1.375 -0.640625 2.40625 -1.5625q1.03125 -0.92185974 1.453125 -1.7812347l1.0625 0l0 13.406235zm12.703827 -10.078125l-1.625 0.125q-0.21875 -0.96875 -0.625 -1.40625q-0.65625 -0.70310974 -1.640625 -0.70310974q-0.78125 0 -1.375 0.43748474q-0.765625 0.5625 -1.21875 1.65625q-0.453125 1.078125 -0.46875 3.078125q0.59375 -0.890625 1.453125 -1.328125q0.859375 -0.4375 1.796875 -0.4375q1.640625 0 2.78125 1.203125q1.15625 1.203125 1.15625 3.109375q0 1.265625 -0.546875 2.34375q-0.53125 1.078125 -1.484375 1.65625q-0.9375 0.578125 -2.140625 0.578125q-2.0625 0 -3.359375 -1.5q-1.28125 -1.515625 -1.28125 -4.984375q0 -3.875 1.421875 -5.625q1.25 -1.5312347 3.375 -1.5312347q1.5625 0 2.5625 0.890625q1.015625 0.87498474 1.21875 2.4374847zm-6.6875 5.75q0 0.84375 0.359375 1.625q0.359375 0.765625 1.0 1.171875q0.640625 0.40625 1.359375 0.40625q1.03125 0 1.78125 -0.828125q0.75 -0.84375 0.75 -2.28125q0 -1.390625 -0.734375 -2.1875q-0.734375 -0.796875 -1.859375 -0.796875q-1.109375 0 -1.890625 0.796875q-0.765625 0.796875 -0.765625 2.09375z" fill-rule="nonzero"/><path fill="#ffffff" d="m465.28085 304.63516l0 0c0 -10.436859 8.460754 -18.897644 18.897614 -18.897644l0 0c5.011963 0 9.818665 1.9909973 13.362671 5.5350037c3.5439758 3.5440063 5.534973 8.3506775 5.534973 13.36264l0 0c0 10.43689 -8.460754 18.897644 -18.897644 18.897644l0 0c-10.436859 0 -18.897614 -8.460754 -18.897614 -18.897644z" fill-rule="evenodd"/><path stroke="#000000" stroke-width="3.0" stroke-linejoin="round" stroke-linecap="butt" d="m465.28085 304.63516l0 0c0 -10.436859 8.460754 -18.897644 18.897614 -18.897644l0 0c5.011963 0 9.818665 1.9909973 13.362671 5.5350037c3.5439758 3.5440063 5.534973 8.3506775 5.534973 13.36264l0 0c0 10.43689 -8.460754 18.897644 -18.897644 18.897644l0 0c-10.436859 0 -18.897614 -8.460754 -18.897614 -18.897644z" fill-rule="evenodd"/><path fill="#000000" d="m479.77188 308.02393l1.640625 -0.21875q0.28125 1.40625 0.953125 2.015625q0.6875 0.609375 1.65625 0.609375q1.15625 0 1.953125 -0.796875q0.796875 -0.796875 0.796875 -1.984375q0 -1.125 -0.734375 -1.859375q-0.734375 -0.734375 -1.875 -0.734375q-0.46875 0 -1.15625 0.171875l0.1875 -1.4375q0.15625 0.015625 0.265625 0.015625q1.046875 0 1.875 -0.546875q0.84375 -0.546875 0.84375 -1.671875q0 -0.90625 -0.609375 -1.5q-0.609375 -0.59375 -1.578125 -0.59375q-0.953125 0 -1.59375 0.609375q-0.640625 0.59375 -0.8125 1.796875l-1.640625 -0.296875q0.296875 -1.640625 1.359375 -2.546875q1.0625 -0.90625 2.65625 -0.90625q1.09375 0 2.0 0.46875q0.921875 0.46875 1.40625 1.28125q0.5 0.8125 0.5 1.71875q0 0.859375 -0.46875 1.578125q-0.46875 0.703125 -1.375 1.125q1.1875 0.28125 1.84375 1.140625q0.65625 0.859375 0.65625 2.15625q0 1.734375 -1.28125 2.953125q-1.265625 1.21875 -3.21875 1.21875q-1.765625 0 -2.921875 -1.046875q-1.15625 -1.046875 -1.328125 -2.71875z" fill-rule="nonzero"/><path fill="#ffffff" d="m626.38055 299.11023l0 0c0 -10.436859 8.460754 -18.897644 18.897644 -18.897644l0 0c5.011963 0 9.818665 1.9909973 13.362671 5.5350037c3.5440063 3.5440063 5.534973 8.3506775 5.534973 13.36264l0 0c0 10.43689 -8.460754 18.897644 -18.897644 18.897644l0 0c-10.43689 0 -18.897644 -8.460754 -18.897644 -18.897644z" fill-rule="evenodd"/><path stroke="#000000" stroke-width="3.0" stroke-linejoin="round" stroke-linecap="butt" d="m626.38055 299.11023l0 0c0 -10.436859 8.460754 -18.897644 18.897644 -18.897644l0 0c5.011963 0 9.818665 1.9909973 13.362671 5.5350037c3.5440063 3.5440063 5.534973 8.3506775 5.534973 13.36264l0 0c0 10.43689 -8.460754 18.897644 -18.897644 18.897644l0 0c-10.43689 0 -18.897644 -8.460754 -18.897644 -18.897644z" fill-rule="evenodd"/><path fill="#000000" d="m649.48096 304.45212l0 1.578125l-8.828125 0q-0.015625 -0.59375 0.1875 -1.140625q0.34375 -0.90625 1.078125 -1.78125q0.75 -0.875 2.15625 -2.015625q2.171875 -1.78125 2.9375 -2.828125q0.765625 -1.046875 0.765625 -1.96875q0 -0.984375 -0.703125 -1.640625q-0.6875 -0.671875 -1.8125 -0.671875q-1.1875 0 -1.90625 0.71875q-0.703125 0.703125 -0.703125 1.953125l-1.6875 -0.171875q0.171875 -1.890625 1.296875 -2.875q1.140625 -0.984375 3.03125 -0.984375q1.921875 0 3.046875 1.0625q1.125 1.0625 1.125 2.640625q0 0.796875 -0.328125 1.578125q-0.328125 0.78125 -1.09375 1.640625q-0.75 0.84375 -2.53125 2.34375q-1.46875 1.234375 -1.890625 1.6875q-0.421875 0.4375 -0.6875 0.875l6.546875 0z" fill-rule="nonzero"/><path fill="#ffffff" d="m552.8504 345.50656l0 0c0 -10.43689 8.460754 -18.897644 18.897644 -18.897644l0 0c5.011963 0 9.818665 1.9909973 13.36261 5.5350037c3.5440063 3.5439758 5.535034 8.3506775 5.535034 13.36264l0 0c0 10.43689 -8.460754 18.897644 -18.897644 18.897644l0 0c-10.43689 0 -18.897644 -8.460754 -18.897644 -18.897644z" fill-rule="evenodd"/><path stroke="#000000" stroke-width="3.0" stroke-linejoin="round" stroke-linecap="butt" d="m552.8504 345.50656l0 0c0 -10.43689 8.460754 -18.897644 18.897644 -18.897644l0 0c5.011963 0 9.818665 1.9909973 13.36261 5.5350037c3.5440063 3.5439758 5.535034 8.3506775 5.535034 13.36264l0 0c0 10.43689 -8.460754 18.897644 -18.897644 18.897644l0 0c-10.43689 0 -18.897644 -8.460754 -18.897644 -18.897644z" fill-rule="evenodd"/><path fill="#000000" d="m567.5758 349.33282l1.578125 -0.140625q0.203125 1.109375 0.765625 1.609375q0.5625 0.5 1.453125 0.5q0.75 0 1.3125 -0.34375q0.578125 -0.34375 0.9375 -0.921875q0.375 -0.578125 0.609375 -1.5625q0.25 -0.984375 0.25 -2.0q0 -0.109375 0 -0.328125q-0.5 0.78125 -1.359375 1.265625q-0.84375 0.484375 -1.828125 0.484375q-1.671875 0 -2.8125 -1.203125q-1.140625 -1.203125 -1.140625 -3.171875q0 -2.03125 1.1875 -3.265625q1.203125 -1.234375 3.0 -1.234375q1.3125 0 2.390625 0.703125q1.078125 0.703125 1.640625 2.0q0.5625 1.296875 0.5625 3.75q0 2.5625 -0.5625 4.078125q-0.5625 1.515625 -1.65625 2.3125q-1.09375 0.796875 -2.578125 0.796875q-1.5625 0 -2.5625 -0.875q-0.984375 -0.875 -1.1875 -2.453125zm6.71875 -5.890625q0 -1.40625 -0.75 -2.234375q-0.75 -0.828125 -1.8125 -0.828125q-1.09375 0 -1.90625 0.890625q-0.8125 0.890625 -0.8125 2.3125q0 1.28125 0.765625 2.078125q0.78125 0.796875 1.90625 0.796875q1.140625 0 1.875 -0.796875q0.734375 -0.796875 0.734375 -2.21875z" fill-rule="nonzero"/><path fill="#ffffff" d="m547.0866 249.01312l0 0c0 -10.436874 8.460754 -18.897644 18.897644 -18.897644l0 0c5.011963 0 9.818665 1.9909973 13.362671 5.5350037c3.5439453 3.543991 5.534973 8.3506775 5.534973 13.36264l0 0c0 10.43689 -8.460754 18.897644 -18.897644 18.897644l0 0c-10.43689 0 -18.897644 -8.460754 -18.897644 -18.897644z" fill-rule="evenodd"/><path stroke="#000000" stroke-width="3.0" stroke-linejoin="round" stroke-linecap="butt" d="m547.0866 249.01312l0 0c0 -10.436874 8.460754 -18.897644 18.897644 -18.897644l0 0c5.011963 0 9.818665 1.9909973 13.362671 5.5350037c3.5439453 3.543991 5.534973 8.3506775 5.534973 13.36264l0 0c0 10.43689 -8.460754 18.897644 -18.897644 18.897644l0 0c-10.43689 0 -18.897644 -8.460754 -18.897644 -18.897644z" fill-rule="evenodd"/><path fill="#000000" d="m562.56165 255.93312l-1.640625 0l0 -10.453125q-0.59375 0.5625 -1.5625 1.140625q-0.953125 0.5625 -1.71875 0.84375l0 -1.59375q1.375 -0.640625 2.40625 -1.5625q1.03125 -0.921875 1.453125 -1.78125l1.0625 0l0 13.40625zm4.2038574 -3.5l1.71875 -0.140625q0.1875 1.25 0.875 1.890625q0.703125 0.625 1.6875 0.625q1.1875 0 2.0 -0.890625q0.828125 -0.890625 0.828125 -2.359375q0 -1.40625 -0.796875 -2.21875q-0.78125 -0.8125 -2.0625 -0.8125q-0.78125 0 -1.421875 0.359375q-0.640625 0.359375 -1.0 0.9375l-1.546875 -0.203125l1.296875 -6.859375l6.640625 0l0 1.5625l-5.328125 0l-0.71875 3.59375q1.203125 -0.84375 2.515625 -0.84375q1.75 0 2.953125 1.21875q1.203125 1.203125 1.203125 3.109375q0 1.8125 -1.046875 3.140625q-1.296875 1.6250153 -3.515625 1.6250153q-1.8125 0 -2.96875 -1.0156403q-1.15625 -1.03125 -1.3125 -2.71875z" fill-rule="nonzero"/><path fill="#ffffff" d="m610.7454 216.4357l0 0c0 -10.436874 8.460754 -18.897644 18.897644 -18.897644l0 0c5.011963 0 9.8186035 1.9909973 13.36261 5.5349884c3.5440063 3.543991 5.535034 8.350693 5.535034 13.362656l0 0c0 10.436874 -8.460815 18.897629 -18.897644 18.897629l0 0c-10.43689 0 -18.897644 -8.460754 -18.897644 -18.897629z" fill-rule="evenodd"/><path stroke="#000000" stroke-width="3.0" stroke-linejoin="round" stroke-linecap="butt" d="m610.7454 216.4357l0 0c0 -10.436874 8.460754 -18.897644 18.897644 -18.897644l0 0c5.011963 0 9.8186035 1.9909973 13.36261 5.5349884c3.5440063 3.543991 5.535034 8.350693 5.535034 13.362656l0 0c0 10.436874 -8.460815 18.897629 -18.897644 18.897629l0 0c-10.43689 0 -18.897644 -8.460754 -18.897644 -18.897629z" fill-rule="evenodd"/><path fill="#000000" d="m626.22046 223.3557l-1.640625 0l0 -10.453125q-0.59375 0.5625 -1.5625 1.140625q-0.953125 0.5625 -1.71875 0.84375l0 -1.59375q1.375 -0.640625 2.40625 -1.5625q1.03125 -0.921875 1.453125 -1.78125l1.0625 0l0 13.40625zm4.2038574 -6.59375q0 -2.359375 0.484375 -3.796875q0.484375 -1.453125 1.4375 -2.234375q0.96875 -0.78125 2.421875 -0.78125q1.078125 0 1.890625 0.4375q0.8125 0.421875 1.328125 1.25q0.53125 0.8125 0.828125 1.984375q0.3125 1.15625 0.3125 3.140625q0 2.359375 -0.484375 3.8125q-0.484375 1.4375 -1.453125 2.234375q-0.953125 0.78125 -2.421875 0.78125q-1.921875 0 -3.03125 -1.390625q-1.3125 -1.671875 -1.3125 -5.4375zm1.671875 0q0 3.296875 0.765625 4.390625q0.78125 1.078125 1.90625 1.078125q1.140625 0 1.90625 -1.09375q0.765625 -1.09375 0.765625 -4.375q0 -3.296875 -0.765625 -4.375q-0.765625 -1.078125 -1.921875 -1.078125q-1.125 0 -1.796875 0.953125q-0.859375 1.21875 -0.859375 4.5z" fill-rule="nonzero"/><path fill="#000000" fill-opacity="0.0" d="m24.047245 90.632545l0 -46.582676" fill-rule="evenodd"/><path stroke="#000000" stroke-width="2.0" stroke-linejoin="round" stroke-linecap="butt" d="m24.047245 90.632545l0 -46.582676" fill-rule="evenodd"/><path fill="#000000" fill-opacity="0.0" d="m71.14391 79.82722l-33.732285 16.34645" fill-rule="evenodd"/><path stroke="#000000" stroke-width="2.0" stroke-linejoin="round" stroke-linecap="butt" d="m71.14391 79.82722l-33.732285 16.34645" fill-rule="evenodd"/><path fill="#000000" fill-opacity="0.0" d="m37.409893 38.50438l33.73228 14.58268" fill-rule="evenodd"/><path stroke="#000000" stroke-width="2.0" stroke-linejoin="round" stroke-linecap="butt" d="m37.409893 38.50438l33.73228 14.58268" fill-rule="evenodd"/><path fill="#000000" fill-opacity="0.0" d="m248.66405 83.07087l63.0551 21.700783" fill-rule="evenodd"/><path stroke="#000000" stroke-width="2.0" stroke-linejoin="round" stroke-linecap="butt" d="m248.66405 83.07087l63.0551 21.700783" fill-rule="evenodd"/><path fill="#000000" fill-opacity="0.0" d="m338.4545 104.77908l49.921265 -18.897636" fill-rule="evenodd"/><path stroke="#000000" stroke-width="2.0" stroke-linejoin="round" stroke-linecap="butt" d="m338.4545 104.77908l49.921265 -18.897636" fill-rule="evenodd"/><path fill="#000000" fill-opacity="0.0" d="m229.7664 101.968506l0 39.905502" fill-rule="evenodd"/><path stroke="#000000" stroke-width="2.0" stroke-linejoin="round" stroke-linecap="butt" d="m229.7664 101.968506l0 39.905502" fill-rule="evenodd"/><path fill="#000000" fill-opacity="0.0" d="m243.12906 147.40639l63.055115 -29.25985" fill-rule="evenodd"/><path stroke="#000000" stroke-width="2.0" stroke-linejoin="round" stroke-linecap="butt" d="m243.12906 147.40639l63.055115 -29.25985" fill-rule="evenodd"/><path fill="#000000" fill-opacity="0.0" d="m338.4545 131.50438l48.629944 28.692917" fill-rule="evenodd"/><path stroke="#000000" stroke-width="2.0" stroke-linejoin="round" stroke-linecap="butt" d="m338.4545 131.50438l48.629944 28.692917" fill-rule="evenodd"/><path fill="#000000" fill-opacity="0.0" d="m248.66405 160.76903l132.88188 12.787399" fill-rule="evenodd"/><path stroke="#000000" stroke-width="2.0" stroke-linejoin="round" stroke-linecap="butt" d="m248.66405 160.76903l132.88188 12.787399" fill-rule="evenodd"/><path fill="#000000" fill-opacity="0.0" d="m407.2861 104.77165l-6.834656 49.88977" fill-rule="evenodd"/><path stroke="#000000" stroke-width="2.0" stroke-linejoin="round" stroke-linecap="butt" d="m407.2861 104.77165l-6.834656 49.88977" fill-rule="evenodd"/><path fill="#000000" fill-opacity="0.0" d="m264.92126 267.3491l0 32.566925" fill-rule="evenodd"/><path stroke="#000000" stroke-width="2.0" stroke-linejoin="round" stroke-linecap="butt" d="m264.92126 267.3491l0 32.566925" fill-rule="evenodd"/><path fill="#000000" fill-opacity="0.0" d="m251.55861 332.17892l-51.716537 18.897644" fill-rule="evenodd"/><path stroke="#000000" stroke-width="2.0" stroke-linejoin="round" stroke-linecap="butt" d="m251.55861 332.17892l-51.716537 18.897644" fill-rule="evenodd"/><path fill="#000000" fill-opacity="0.0" d="m278.2839 305.4536l42.456696 -31.118103" fill-rule="evenodd"/><path stroke="#000000" stroke-width="2.0" stroke-linejoin="round" stroke-linecap="butt" d="m278.2839 305.4536l42.456696 -31.118103" fill-rule="evenodd"/><path fill="#000000" fill-opacity="0.0" d="m579.3469 235.65048l31.40155 -19.2126" fill-rule="evenodd"/><path stroke="#000000" stroke-width="2.0" stroke-linejoin="round" stroke-linecap="butt" d="m579.3469 235.65048l31.40155 -19.2126" fill-rule="evenodd"/><path fill="#000000" fill-opacity="0.0" d="m565.98425 267.91077l5.763794 58.70865" fill-rule="evenodd"/><path stroke="#000000" stroke-width="2.0" stroke-linejoin="round" stroke-linecap="butt" d="m565.98425 267.91077l5.763794 58.70865" fill-rule="evenodd"/><path fill="#000000" fill-opacity="0.0" d="m584.8819 249.01312l47.02362 36.724396" fill-rule="evenodd"/><path stroke="#000000" stroke-width="2.0" stroke-linejoin="round" stroke-linecap="butt" d="m584.8819 249.01312l47.02362 36.724396" fill-rule="evenodd"/><path fill="#000000" fill-opacity="0.0" d="m585.11066 332.14392l41.259888 -33.039368" fill-rule="evenodd"/><path stroke="#000000" stroke-width="2.0" stroke-linejoin="round" stroke-linecap="butt" d="m585.11066 332.14392l41.259888 -33.039368" fill-rule="evenodd"/><path fill="#000000" fill-opacity="0.0" d="m497.54114 317.99783l55.307068 27.496063" fill-rule="evenodd"/><path stroke="#000000" stroke-width="2.0" stroke-linejoin="round" stroke-linecap="butt" d="m497.54114 317.99783l55.307068 27.496063" fill-rule="evenodd"/></g></svg>