<svg version="1.1" viewBox="0.0 0.0 391.73228346456693 170.92388451443568" fill="none" stroke="none" stroke-linecap="square" stroke-miterlimit="10" xmlns:xlink="http://www.w3.org/1999/xlink" xmlns="http://www.w3.org/2000/svg"><clipPath id="p.0"><path d="m0 0l391.73227 0l0 170.92389l-391.73227 0l0 -170.92389z" clip-rule="nonzero"/></clipPath><g clip-path="url(#p.0)"><path fill="#000000" fill-opacity="0.0" d="m0 0l391.73227 0l0 170.92389l-391.73227 0z" fill-rule="evenodd"/><path fill="#ffffff" d="m13.795276 30.16273l0 0c0 -10.436876 8.460761 -18.897636 18.897636 -18.897636l0 0c5.0119667 0 9.818653 1.9909954 13.362648 5.5349894c3.543995 3.543995 5.5349884 8.350683 5.5349884 13.362648l0 0c0 10.436876 -8.460758 18.897638 -18.897636 18.897638l0 0c-10.436876 0 -18.897636 -8.460762 -18.897636 -18.897638z" fill-rule="evenodd"/><path stroke="#000000" stroke-width="3.0" stroke-linejoin="round" stroke-linecap="butt" d="m13.795276 30.16273l0 0c0 -10.436876 8.460761 -18.897636 18.897636 -18.897636l0 0c5.0119667 0 9.818653 1.9909954 13.362648 5.5349894c3.543995 3.543995 5.5349884 8.350683 5.5349884 13.362648l0 0c0 10.436876 -8.460758 18.897638 -18.897636 18.897638l0 0c-10.436876 0 -18.897636 -8.460762 -18.897636 -18.897638z" fill-rule="evenodd"/><path fill="#000000" d="m34.45818 37.08273l-1.640625 0l0 -10.453127q-0.59375 0.5625 -1.5625 1.140625q-0.953125 0.5625 -1.71875 0.84375l0 -1.59375q1.375 -0.640625 2.40625 -1.5625q1.03125 -0.921875 1.453125 -1.78125l1.0625 0l0 13.406252z" fill-rule="nonzero"/><path fill="#ffffff" d="m74.25459 71.485565l0 0c0 -10.436878 8.460762 -18.89764 18.897636 -18.89764l0 0c5.0119705 0 9.818657 1.9909973 13.362648 5.534992c3.5439987 3.543995 5.5349884 8.350685 5.5349884 13.362648l0 0c0 10.436874 -8.460754 18.897636 -18.897636 18.897636l0 0c-10.436874 0 -18.897636 -8.460762 -18.897636 -18.897636z" fill-rule="evenodd"/><path stroke="#000000" stroke-width="3.0" stroke-linejoin="round" stroke-linecap="butt" d="m74.25459 71.485565l0 0c0 -10.436878 8.460762 -18.89764 18.897636 -18.89764l0 0c5.0119705 0 9.818657 1.9909973 13.362648 5.534992c3.5439987 3.543995 5.5349884 8.350685 5.5349884 13.362648l0 0c0 10.436874 -8.460754 18.897636 -18.897636 18.897636l0 0c-10.436874 0 -18.897636 -8.460762 -18.897636 -18.897636z" fill-rule="evenodd"/><path fill="#000000" d="m88.74562 74.87431l1.640625 -0.21875q0.28125 1.40625 0.953125 2.015625q0.6875 0.609375 1.65625 0.609375q1.15625 0 1.953125 -0.796875q0.796875 -0.796875 0.796875 -1.984375q0 -1.125 -0.734375 -1.859375q-0.734375 -0.734375 -1.875 -0.734375q-0.46875 0 -1.15625 0.171875l0.1875 -1.4375q0.15625 0.015625 0.265625 0.015625q1.046875 0 1.875 -0.546875q0.84375 -0.546875 0.84375 -1.671875q0 -0.90625 -0.609375 -1.5q-0.609375 -0.59375 -1.578125 -0.59375q-0.953125 0 -1.59375 0.609375q-0.640625 0.59375 -0.8125 1.796875l-1.640625 -0.296875q0.296875 -1.640625 1.359375 -2.546875q1.0625 -0.90625 2.65625 -0.90625q1.09375 0 2.0 0.46875q0.921875 0.46875 1.40625 1.28125q0.5 0.8125 0.5 1.71875q0 0.859375 -0.46875 1.578125q-0.46875 0.703125 -1.375 1.125q1.1875 0.28125 1.84375 1.140625q0.65625 0.859375 0.65625 2.15625q0 1.734375 -1.28125 2.953125q-1.265625 1.21875 -3.21875 1.21875q-1.765625 0 -2.921875 -1.046875q-1.15625 -1.046875 -1.328125 -2.71875z" fill-rule="nonzero"/><path fill="#ffffff" d="m13.795276 114.55118l0 0c0 -10.436874 8.460761 -18.897636 18.897636 -18.897636l0 0c5.0119667 0 9.818653 1.9909973 13.362648 5.5349884c3.543995 3.5439987 5.5349884 8.350685 5.5349884 13.362648l0 0c0 10.436882 -8.460758 18.897644 -18.897636 18.897644l0 0c-10.436876 0 -18.897636 -8.460762 -18.897636 -18.897644z" fill-rule="evenodd"/><path stroke="#000000" stroke-width="3.0" stroke-linejoin="round" stroke-linecap="butt" d="m13.795276 114.55118l0 0c0 -10.436874 8.460761 -18.897636 18.897636 -18.897636l0 0c5.0119667 0 9.818653 1.9909973 13.362648 5.5349884c3.543995 3.5439987 5.5349884 8.350685 5.5349884 13.362648l0 0c0 10.436882 -8.460758 18.897644 -18.897636 18.897644l0 0c-10.436876 0 -18.897636 -8.460762 -18.897636 -18.897644z" fill-rule="evenodd"/><path fill="#000000" d="m36.89568 119.89305l0 1.578125l-8.828125 0q-0.015625 -0.59375 0.1875 -1.140625q0.34375 -0.90625 1.078125 -1.78125q0.75 -0.875 2.15625 -2.015625q2.171875 -1.78125 2.9375 -2.828125q0.765625 -1.046875 0.765625 -1.96875q0 -0.984375 -0.703125 -1.640625q-0.6875 -0.671875 -1.8125 -0.671875q-1.1875 0 -1.90625 0.71875q-0.703125 0.703125 -0.703125 1.953125l-1.6875 -0.171875q0.171875 -1.890625 1.296875 -2.875q1.140625 -0.984375 3.03125 -0.984375q1.921875 0 3.046875 1.0625q1.125 1.0625 1.125 2.640625q0 0.796875 -0.328125 1.578125q-0.328125 0.78125 -1.09375 1.640625q-0.75 0.84375 -2.53125 2.34375q-1.46875 1.234375 -1.890625 1.6875q-0.421875 0.4375 -0.6875 0.875l6.546875 0z" fill-rule="nonzero"/><path fill="#ffffff" d="m166.85039 47.7769l0 0c0 -10.436874 8.46077 -18.897636 18.897644 -18.897636l0 0c5.011963 0 9.818649 1.9909954 13.36264 5.5349884c3.5440063 3.543995 5.5350037 8.350685 5.5350037 13.362648l0 0c0 10.436878 -8.46077 18.897636 -18.897644 18.897636l0 0c-10.436874 0 -18.897644 -8.460758 -18.897644 -18.897636z" fill-rule="evenodd"/><path stroke="#000000" stroke-width="3.0" stroke-linejoin="round" stroke-linecap="butt" d="m166.85039 47.7769l0 0c0 -10.436874 8.46077 -18.897636 18.897644 -18.897636l0 0c5.011963 0 9.818649 1.9909954 13.36264 5.5349884c3.5440063 3.543995 5.5350037 8.350685 5.5350037 13.362648l0 0c0 10.436878 -8.46077 18.897636 -18.897644 18.897636l0 0c-10.436874 0 -18.897644 -8.460758 -18.897644 -18.897636z" fill-rule="evenodd"/><path fill="#000000" d="m186.59143 54.6969l0 -3.203125l-5.796875 0l0 -1.5l6.09375 -8.65625l1.34375 0l0 8.65625l1.796875 0l0 1.5l-1.796875 0l0 3.203125l-1.640625 0zm0 -4.703125l0 -6.015625l-4.1875 6.015625l4.1875 0z" fill-rule="nonzero"/><path fill="#ffffff" d="m262.17584 82.84777l0 0c0 -10.436882 8.460785 -18.89764 18.897644 -18.89764l0 0c5.011963 0 9.818665 1.9909935 13.36264 5.534992c3.5440063 3.543991 5.5350037 8.3506775 5.5350037 13.362648l0 0c0 10.436874 -8.460754 18.897636 -18.897644 18.897636l0 0c-10.436859 0 -18.897644 -8.460762 -18.897644 -18.897636z" fill-rule="evenodd"/><path stroke="#000000" stroke-width="3.0" stroke-linejoin="round" stroke-linecap="butt" d="m262.17584 82.84777l0 0c0 -10.436882 8.460785 -18.89764 18.897644 -18.89764l0 0c5.011963 0 9.818665 1.9909935 13.36264 5.534992c3.5440063 3.543991 5.5350037 8.3506775 5.5350037 13.362648l0 0c0 10.436874 -8.460754 18.897636 -18.897644 18.897636l0 0c-10.436859 0 -18.897644 -8.460762 -18.897644 -18.897636z" fill-rule="evenodd"/><path fill="#000000" d="m285.16687 79.689644l-1.625 0.125q-0.21875 -0.96875 -0.625 -1.40625q-0.65625 -0.703125 -1.640625 -0.703125q-0.78125 0 -1.375 0.4375q-0.765625 0.5625 -1.21875 1.65625q-0.453125 1.078125 -0.46875 3.078125q0.59375 -0.890625 1.453125 -1.328125q0.859375 -0.4375 1.796875 -0.4375q1.640625 0 2.78125 1.203125q1.15625 1.203125 1.15625 3.109375q0 1.265625 -0.546875 2.34375q-0.53125 1.078125 -1.484375 1.65625q-0.9375 0.578125 -2.140625 0.578125q-2.0625 0 -3.359375 -1.5q-1.28125 -1.515625 -1.28125 -4.984375q0 -3.875 1.421875 -5.625q1.25 -1.53125 3.375 -1.53125q1.5625 0 2.5625 0.890625q1.015625 0.875 1.21875 2.4375zm-6.6875 5.75q0 0.84375 0.359375 1.625q0.359375 0.765625 1.0 1.171875q0.640625 0.40625 1.359375 0.40625q1.03125 0 1.78125 -0.828125q0.75 -0.84375 0.75 -2.28125q0 -1.390625 -0.734375 -2.1875q-0.734375 -0.796875 -1.859375 -0.796875q-1.109375 0 -1.890625 0.796875q-0.765625 0.796875 -0.765625 2.09375z" fill-rule="nonzero"/><path fill="#ffffff" d="m166.85039 125.47507l0 0c0 -10.436882 8.46077 -18.897636 18.897644 -18.897636l0 0c5.011963 0 9.818649 1.9909897 13.36264 5.5349884c3.5440063 3.543991 5.5350037 8.350685 5.5350037 13.362648l0 0c0 10.436874 -8.46077 18.897629 -18.897644 18.897629l0 0c-10.436874 0 -18.897644 -8.460754 -18.897644 -18.897629z" fill-rule="evenodd"/><path stroke="#000000" stroke-width="3.0" stroke-linejoin="round" stroke-linecap="butt" d="m166.85039 125.47507l0 0c0 -10.436882 8.46077 -18.897636 18.897644 -18.897636l0 0c5.011963 0 9.818649 1.9909897 13.36264 5.5349884c3.5440063 3.543991 5.5350037 8.350685 5.5350037 13.362648l0 0c0 10.436874 -8.46077 18.897629 -18.897644 18.897629l0 0c-10.436874 0 -18.897644 -8.460754 -18.897644 -18.897629z" fill-rule="evenodd"/><path fill="#000000" d="m181.34143 128.89507l1.71875 -0.140625q0.1875 1.25 0.875 1.890625q0.703125 0.625 1.6875 0.625q1.1875 0 2.0 -0.890625q0.828125 -0.890625 0.828125 -2.359375q0 -1.40625 -0.796875 -2.21875q-0.78125 -0.8125 -2.0625 -0.8125q-0.78125 0 -1.421875 0.359375q-0.640625 0.359375 -1.0 0.9375l-1.546875 -0.203125l1.296875 -6.859375l6.640625 0l0 1.5625l-5.328125 0l-0.71875 3.59375q1.203125 -0.84375 2.515625 -0.84375q1.75 0 2.953125 1.21875q1.203125 1.203125 1.203125 3.109375q0 1.8125 -1.046875 3.140625q-1.296875 1.625 -3.515625 1.625q-1.8125 0 -2.96875 -1.015625q-1.15625 -1.03125 -1.3125 -2.71875z" fill-rule="nonzero"/><path fill="#ffffff" d="m344.3701 50.58005l0 0c0 -10.436874 8.460754 -18.897636 18.897644 -18.897636l0 0c5.011963 0 9.818634 1.9909935 13.36264 5.5349884c3.5439758 3.543995 5.534973 8.350685 5.534973 13.362648l0 0c0 10.436878 -8.460754 18.89764 -18.897614 18.89764l0 0c-10.43689 0 -18.897644 -8.460762 -18.897644 -18.89764z" fill-rule="evenodd"/><path stroke="#000000" stroke-width="3.0" stroke-linejoin="round" stroke-linecap="butt" d="m344.3701 50.58005l0 0c0 -10.436874 8.460754 -18.897636 18.897644 -18.897636l0 0c5.011963 0 9.818634 1.9909935 13.36264 5.5349884c3.5439758 3.543995 5.534973 8.350685 5.534973 13.362648l0 0c0 10.436878 -8.460754 18.89764 -18.897614 18.89764l0 0c-10.43689 0 -18.897644 -8.460762 -18.897644 -18.89764z" fill-rule="evenodd"/><path fill="#000000" d="m358.9705 45.890675l0 -1.578125l8.640625 0l0 1.28125q-1.28125 1.359375 -2.53125 3.609375q-1.25 2.25 -1.9375 4.625q-0.484375 1.671875 -0.625 3.671875l-1.6875 0q0.03125 -1.578125 0.625 -3.8125q0.59375 -2.234375 1.6875 -4.296875q1.109375 -2.078125 2.359375 -3.5l-6.53125 0z" fill-rule="nonzero"/><path fill="#ffffff" d="m337.53806 138.26509l0 0c0 -10.436874 8.460754 -18.897636 18.897644 -18.897636l0 0c5.011963 0 9.818665 1.9909973 13.36264 5.5349884c3.5440063 3.5439987 5.5350037 8.350685 5.5350037 13.362648l0 0c0 10.436874 -8.460785 18.897644 -18.897644 18.897644l0 0c-10.43689 0 -18.897644 -8.46077 -18.897644 -18.897644z" fill-rule="evenodd"/><path stroke="#000000" stroke-width="3.0" stroke-linejoin="round" stroke-linecap="butt" d="m337.53806 138.26509l0 0c0 -10.436874 8.460754 -18.897636 18.897644 -18.897636l0 0c5.011963 0 9.818665 1.9909973 13.36264 5.5349884c3.5440063 3.5439987 5.5350037 8.350685 5.5350037 13.362648l0 0c0 10.436874 -8.460785 18.897644 -18.897644 18.897644l0 0c-10.43689 0 -18.897644 -8.46077 -18.897644 -18.897644z" fill-rule="evenodd"/><path fill="#000000" d="m354.5447 137.95071q-1.015625 -0.375 -1.515625 -1.0625q-0.484375 -0.703125 -0.484375 -1.671875q0 -1.453125 1.046875 -2.4375q1.046875 -1.0 2.78125 -1.0q1.75 0 2.8125 1.015625q1.078125 1.015625 1.078125 2.46875q0 0.9375 -0.5 1.625q-0.484375 0.6875 -1.46875 1.0625q1.21875 0.390625 1.859375 1.28125q0.65625 0.890625 0.65625 2.140625q0 1.703125 -1.21875 2.875q-1.21875 1.171875 -3.1875 1.171875q-1.984375 0 -3.203125 -1.171875q-1.203125 -1.171875 -1.203125 -2.921875q0 -1.3125 0.65625 -2.1875q0.671875 -0.875 1.890625 -1.1875zm-0.328125 -2.78125q0 0.9375 0.609375 1.546875q0.609375 0.59375 1.59375 0.59375q0.9375 0 1.546875 -0.59375q0.609375 -0.59375 0.609375 -1.453125q0 -0.90625 -0.625 -1.515625q-0.625 -0.625 -1.5625 -0.625q-0.9375 0 -1.5625 0.609375q-0.609375 0.59375 -0.609375 1.4375zm-0.53125 6.15625q0 0.703125 0.328125 1.359375q0.34375 0.65625 1.0 1.015625q0.65625 0.359375 1.40625 0.359375q1.171875 0 1.9375 -0.75q0.765625 -0.75 0.765625 -1.921875q0 -1.1875 -0.796875 -1.953125q-0.78125 -0.78125 -1.953125 -0.78125q-1.15625 0 -1.921875 0.765625q-0.765625 0.765625 -0.765625 1.90625z" fill-rule="nonzero"/><path fill="#000000" fill-opacity="0.0" d="m32.692913 95.65354l0 -46.582676" fill-rule="evenodd"/><path stroke="#000000" stroke-width="2.0" stroke-linejoin="round" stroke-linecap="butt" d="m32.692913 95.65354l0 -46.582676" fill-rule="evenodd"/><path fill="#000000" fill-opacity="0.0" d="m79.78958 84.84821l-33.73228 16.346458" fill-rule="evenodd"/><path stroke="#000000" stroke-width="2.0" stroke-linejoin="round" stroke-linecap="butt" d="m79.78958 84.84821l-33.73228 16.346458" fill-rule="evenodd"/><path fill="#000000" fill-opacity="0.0" d="m46.05556 43.52538l33.73228 14.582676" fill-rule="evenodd"/><path stroke="#000000" stroke-width="2.0" stroke-linejoin="round" stroke-linecap="butt" d="m46.05556 43.52538l33.73228 14.582676" fill-rule="evenodd"/><path fill="#000000" fill-opacity="0.0" d="m204.64568 47.7769l63.0551 21.70079" fill-rule="evenodd"/><path stroke="#000000" stroke-width="2.0" stroke-linejoin="round" stroke-linecap="butt" d="m204.64568 47.7769l63.0551 21.70079" fill-rule="evenodd"/><path fill="#000000" fill-opacity="0.0" d="m294.43613 69.48512l49.921265 -18.89764" fill-rule="evenodd"/><path stroke="#000000" stroke-width="2.0" stroke-linejoin="round" stroke-linecap="butt" d="m294.43613 69.48512l49.921265 -18.89764" fill-rule="evenodd"/><path fill="#000000" fill-opacity="0.0" d="m185.74803 66.67454l0 39.905518" fill-rule="evenodd"/><path stroke="#000000" stroke-width="2.0" stroke-linejoin="round" stroke-linecap="butt" d="m185.74803 66.67454l0 39.905518" fill-rule="evenodd"/><path fill="#000000" fill-opacity="0.0" d="m199.11067 112.11242l63.05513 -29.259842" fill-rule="evenodd"/><path stroke="#000000" stroke-width="2.0" stroke-linejoin="round" stroke-linecap="butt" d="m199.11067 112.11242l63.05513 -29.259842" fill-rule="evenodd"/><path fill="#000000" fill-opacity="0.0" d="m294.43613 96.21042l48.629944 28.69291" fill-rule="evenodd"/><path stroke="#000000" stroke-width="2.0" stroke-linejoin="round" stroke-linecap="butt" d="m294.43613 96.21042l48.629944 28.69291" fill-rule="evenodd"/><path fill="#000000" fill-opacity="0.0" d="m204.64568 125.47507l132.88188 12.787399" fill-rule="evenodd"/><path stroke="#000000" stroke-width="2.0" stroke-linejoin="round" stroke-linecap="butt" d="m204.64568 125.47507l132.88188 12.787399" fill-rule="evenodd"/><path fill="#000000" fill-opacity="0.0" d="m363.26773 69.47769l-6.834656 49.889763" fill-rule="evenodd"/><path stroke="#000000" stroke-width="2.0" stroke-linejoin="round" stroke-linecap="butt" d="m363.26773 69.47769l-6.834656 49.889763" fill-rule="evenodd"/></g></svg>