<svg version="1.1" viewBox="0.0 0.0 484.1968503937008 236.9475065616798" fill="none" stroke="none" stroke-linecap="square" stroke-miterlimit="10" xmlns:xlink="http://www.w3.org/1999/xlink" xmlns="http://www.w3.org/2000/svg"><clipPath id="p.0"><path d="m0 0l484.19684 0l0 236.94751l-484.19684 0l0 -236.94751z" clip-rule="nonzero"/></clipPath><g clip-path="url(#p.0)"><path fill="#000000" fill-opacity="0.0" d="m0 0l484.19684 0l0 236.94751l-484.19684 0z" fill-rule="evenodd"/><path fill="#000000" fill-opacity="0.0" d="m14.233596 39.015747l0 0c0 -15.820566 12.825103 -28.645668 28.645668 -28.645668l0 0c7.5973053 0 14.883442 3.0180168 20.255547 8.390121c5.3721085 5.3721066 8.390121 12.658243 8.390121 20.255547l0 0c0 15.820568 -12.8251 28.645668 -28.645668 28.645668l0 0c-15.820566 0 -28.645668 -12.8251 -28.645668 -28.645668z" fill-rule="evenodd"/><path stroke="#000000" stroke-width="3.0" stroke-linejoin="round" stroke-linecap="butt" d="m14.233596 39.015747l0 0c0 -15.820566 12.825103 -28.645668 28.645668 -28.645668l0 0c7.5973053 0 14.883442 3.0180168 20.255547 8.390121c5.3721085 5.3721066 8.390121 12.658243 8.390121 20.255547l0 0c0 15.820568 -12.8251 28.645668 -28.645668 28.645668l0 0c-15.820566 0 -28.645668 -12.8251 -28.645668 -28.645668z" fill-rule="evenodd"/><path fill="#000000" d="m50.941765 39.095123q0 6.265625 -1.96875 9.203125q-1.953125 2.921875 -6.078125 2.921875q-4.1875 0 -6.125 -2.96875q-1.921875 -2.96875 -1.921875 -9.125q0 -6.203125 1.953125 -9.156252q1.953125 -2.96875 6.09375 -2.96875q4.1875 0 6.109375 3.015625q1.9375 3.000002 1.9375 9.078127zm-4.109375 7.09375q0.546875 -1.265625 0.734375 -2.96875q0.203125 -1.71875 0.203125 -4.125q0 -2.375 -0.203125 -4.125q-0.1875 -1.75 -0.75 -2.96875q-0.546875 -1.2031269 -1.5 -1.8125019q-0.9375 -0.609375 -2.421875 -0.609375q-1.46875 0 -2.4375 0.609375q-0.953125 0.609375 -1.515625 1.8437519q-0.53125 1.15625 -0.734375 3.015625q-0.1875 1.859375 -0.1875 4.078125q0 2.4375 0.171875 4.078125q0.171875 1.640625 0.734375 2.9375q0.515625 1.21875 1.453125 1.859375q0.953125 0.640625 2.515625 0.640625q1.46875 0 2.4375 -0.609375q0.96875 -0.609375 1.5 -1.84375z" fill-rule="nonzero"/><path fill="#000000" fill-opacity="0.0" d="m42.989502 67.661415l-0.22047424 92.47245" fill-rule="evenodd"/><path stroke="#000000" stroke-width="3.0" stroke-linejoin="round" stroke-linecap="butt" d="m42.989502 67.661415l-0.22047424 92.47245" fill-rule="evenodd"/><path fill="#000000" fill-opacity="0.0" d="m14.233596 188.77953l0 0c0 -15.820572 12.825103 -28.64566 28.645668 -28.64566l0 0c7.5973053 0 14.883442 3.0180054 20.255547 8.390121c5.3721085 5.372101 8.390121 12.658234 8.390121 20.255539l0 0c0 15.820572 -12.8251 28.645676 -28.645668 28.645676l0 0c-15.820566 0 -28.645668 -12.825104 -28.645668 -28.645676z" fill-rule="evenodd"/><path stroke="#000000" stroke-width="3.0" stroke-linejoin="round" stroke-linecap="butt" d="m14.233596 188.77953l0 0c0 -15.820572 12.825103 -28.64566 28.645668 -28.64566l0 0c7.5973053 0 14.883442 3.0180054 20.255547 8.390121c5.3721085 5.372101 8.390121 12.658234 8.390121 20.255539l0 0c0 15.820572 -12.8251 28.645676 -28.645668 28.645676l0 0c-15.820566 0 -28.645668 -12.825104 -28.645668 -28.645676z" fill-rule="evenodd"/><path fill="#000000" d="m49.64489 200.49953l-12.59375 0l0 -2.375l4.84375 0l0 -15.59375l-4.84375 0l0 -2.125q0.984375 0 2.109375 -0.15625q1.125 -0.171875 1.703125 -0.484375q0.71875 -0.390625 1.125 -0.984375q0.421875 -0.609375 0.484375 -1.625l2.421875 0l0 20.96875l4.75 0l0 2.375z" fill-rule="nonzero"/><path fill="#000000" fill-opacity="0.0" d="m410.74014 113.89764l0 0c0 -15.820564 12.825104 -28.645668 28.64569 -28.645668l0 0c7.59729 0 14.883423 3.0180206 20.255554 8.390121c5.372101 5.3721085 8.390106 12.658241 8.390106 20.255547l0 0c0 15.820564 -12.825104 28.645668 -28.64566 28.645668l0 0c-15.820587 0 -28.64569 -12.825104 -28.64569 -28.645668z" fill-rule="evenodd"/><path stroke="#000000" stroke-width="3.0" stroke-linejoin="round" stroke-linecap="butt" d="m410.74014 113.89764l0 0c0 -15.820564 12.825104 -28.645668 28.64569 -28.645668l0 0c7.59729 0 14.883423 3.0180206 20.255554 8.390121c5.372101 5.3721085 8.390106 12.658241 8.390106 20.255547l0 0c0 15.820564 -12.825104 28.645668 -28.64566 28.645668l0 0c-15.820587 0 -28.64569 -12.825104 -28.64569 -28.645668z" fill-rule="evenodd"/><path fill="#000000" d="m448.01083 119.07076l-3.453125 0l0 6.546875l-3.0 0l0 -6.546875l-11.140625 0l0 -3.59375l11.265625 -13.125l2.875 0l0 14.21875l3.453125 0l0 2.5zm-6.453125 -2.5l0 -10.5l-9.015625 10.5l9.015625 0z" fill-rule="nonzero"/><path fill="#000000" fill-opacity="0.0" d="m278.57217 39.015747l0 0c0 -15.820566 12.825104 -28.645668 28.64566 -28.645668l0 0c7.5973206 0 14.883453 3.0180168 20.255554 8.390121c5.372101 5.3721066 8.390137 12.658243 8.390137 20.255547l0 0c0 15.820568 -12.825104 28.645668 -28.64569 28.645668l0 0c-15.820557 0 -28.64566 -12.8251 -28.64566 -28.645668z" fill-rule="evenodd"/><path stroke="#000000" stroke-width="3.0" stroke-linejoin="round" stroke-linecap="butt" d="m278.57217 39.015747l0 0c0 -15.820566 12.825104 -28.645668 28.64566 -28.645668l0 0c7.5973206 0 14.883453 3.0180168 20.255554 8.390121c5.372101 5.3721066 8.390137 12.658243 8.390137 20.255547l0 0c0 15.820568 -12.825104 28.645668 -28.64569 28.645668l0 0c-15.820557 0 -28.64566 -12.8251 -28.64566 -28.645668z" fill-rule="evenodd"/><path fill="#000000" d="m313.2647 39.532623q0.75 0.671875 1.234375 1.6875q0.484375 1.015625 0.484375 2.625q0 1.59375 -0.578125 2.921875q-0.578125 1.328125 -1.625 2.3125q-1.171875 1.09375 -2.765625 1.625q-1.578125 0.515625 -3.46875 0.515625q-1.9375 0 -3.8125 -0.46875q-1.875 -0.453125 -3.078125 -1.0l0 -3.265625l0.234375 0q1.328125 0.875 3.125 1.453125q1.796875 0.578125 3.46875 0.578125q0.984375 0 2.09375 -0.328125q1.109375 -0.328125 1.796875 -0.96875q0.71875 -0.6875 1.0625 -1.515625q0.359375 -0.828125 0.359375 -2.09375q0 -1.25 -0.40625 -2.0625q-0.390625 -0.828125 -1.09375 -1.296875q-0.703125 -0.484375 -1.703125 -0.65625q-1.0 -0.1875 -2.15625 -0.1875l-1.40625 0l0 -2.59375l1.09375 0q2.375 0 3.78125 -0.984375q1.421875 -1.0 1.421875 -2.90625q0 -0.84375 -0.359375 -1.4687519q-0.359375 -0.640625 -1.0 -1.046875q-0.671875 -0.40625 -1.4375 -0.5625q-0.765625 -0.15625 -1.734375 -0.15625q-1.484375 0 -3.15625 0.53125q-1.671875 0.53125 -3.15625 1.5l-0.15625 0l0 -3.265625q1.109375 -0.546875 2.953125 -1.0q1.859375 -0.46875 3.59375 -0.46875q1.703125 0 3.0 0.3125q1.296875 0.3125 2.34375 1.0q1.125 0.75 1.703125 1.8125q0.578125 1.0625 0.578125 2.484377q0 1.9375 -1.375 3.390625q-1.359375 1.4375 -3.21875 1.8125l0 0.21875q0.75 0.125 1.71875 0.53125q0.96875 0.390625 1.640625 0.984375z" fill-rule="nonzero"/><path fill="#000000" fill-opacity="0.0" d="m278.57217 188.77953l0 0c0 -15.820572 12.825104 -28.64566 28.64566 -28.64566l0 0c7.5973206 0 14.883453 3.0180054 20.255554 8.390121c5.372101 5.372101 8.390137 12.658234 8.390137 20.255539l0 0c0 15.820572 -12.825104 28.645676 -28.64569 28.645676l0 0c-15.820557 0 -28.64566 -12.825104 -28.64566 -28.645676z" fill-rule="evenodd"/><path stroke="#000000" stroke-width="3.0" stroke-linejoin="round" stroke-linecap="butt" d="m278.57217 188.77953l0 0c0 -15.820572 12.825104 -28.64566 28.64566 -28.64566l0 0c7.5973206 0 14.883453 3.0180054 20.255554 8.390121c5.372101 5.372101 8.390137 12.658234 8.390137 20.255539l0 0c0 15.820572 -12.825104 28.645676 -28.64569 28.645676l0 0c-15.820557 0 -28.64566 -12.825104 -28.64566 -28.645676z" fill-rule="evenodd"/><path fill="#000000" d="m315.12408 193.1089q0 1.625 -0.59375 3.109375q-0.59375 1.484375 -1.625 2.5q-1.125 1.09375 -2.6875 1.6875q-1.546875 0.578125 -3.59375 0.578125q-1.90625 0 -3.671875 -0.40625q-1.765625 -0.390625 -2.984375 -0.953125l0 -3.296875l0.21875 0q1.28125 0.8125 3.0 1.390625q1.71875 0.5625 3.375 0.5625q1.109375 0 2.140625 -0.3125q1.046875 -0.3125 1.859375 -1.09375q0.6875 -0.671875 1.03125 -1.609375q0.359375 -0.9375 0.359375 -2.171875q0 -1.203125 -0.421875 -2.03125q-0.40625 -0.828125 -1.140625 -1.328125q-0.8125 -0.59375 -1.984375 -0.828125q-1.15625 -0.25 -2.59375 -0.25q-1.375 0 -2.65625 0.1875q-1.265625 0.1875 -2.1875 0.375l0 -11.984375l14.0 0l0 2.734375l-10.984375 0l0 6.1875q0.671875 -0.0625 1.375 -0.09375q0.703125 -0.03125 1.21875 -0.03125q1.890625 0 3.3125 0.328125q1.421875 0.3125 2.609375 1.125q1.25 0.859375 1.9375 2.21875q0.6875 1.359375 0.6875 3.40625z" fill-rule="nonzero"/><path fill="#000000" fill-opacity="0.0" d="m146.4029 113.89764l0 0c0 -15.820564 12.825104 -28.645668 28.64566 -28.645668l0 0c7.5973053 0 14.883438 3.0180206 20.255554 8.390121c5.372101 5.3721085 8.390121 12.658241 8.390121 20.255547l0 0c0 15.820564 -12.825104 28.645668 -28.645676 28.645668l0 0c-15.820557 0 -28.64566 -12.825104 -28.64566 -28.645668z" fill-rule="evenodd"/><path stroke="#000000" stroke-width="3.0" stroke-linejoin="round" stroke-linecap="butt" d="m146.4029 113.89764l0 0c0 -15.820564 12.825104 -28.645668 28.64566 -28.645668l0 0c7.5973053 0 14.883438 3.0180206 20.255554 8.390121c5.372101 5.3721085 8.390121 12.658241 8.390121 20.255547l0 0c0 15.820564 -12.825104 28.645668 -28.645676 28.645668l0 0c-15.820557 0 -28.64566 -12.825104 -28.64566 -28.645668z" fill-rule="evenodd"/><path fill="#000000" d="m183.1423 125.61764l-15.75 0l0 -3.265625q1.640625 -1.40625 3.28125 -2.8125q1.65625 -1.40625 3.078125 -2.796875q3.0 -2.90625 4.109375 -4.609375q1.109375 -1.71875 1.109375 -3.703125q0 -1.8125 -1.203125 -2.828125q-1.1875 -1.03125 -3.328125 -1.03125q-1.421875 0 -3.078125 0.5q-1.65625 0.5 -3.234375 1.53125l-0.15625 0l0 -3.28125q1.109375 -0.546875 2.953125 -1.0q1.859375 -0.453125 3.59375 -0.453125q3.578125 0 5.609375 1.734375q2.03125 1.71875 2.03125 4.671875q0 1.328125 -0.34375 2.484375q-0.328125 1.140625 -0.984375 2.171875q-0.609375 0.96875 -1.4375 1.90625q-0.8125 0.9375 -1.984375 2.078125q-1.671875 1.640625 -3.453125 3.1875q-1.78125 1.53125 -3.328125 2.84375l12.515625 0l0 2.671875z" fill-rule="nonzero"/><path fill="#000000" fill-opacity="0.0" d="m154.79301 134.15318l-83.2756 54.61418" fill-rule="evenodd"/><path stroke="#000000" stroke-width="3.0" stroke-linejoin="round" stroke-linecap="butt" d="m154.79301 134.15318l-83.2756 54.61418" fill-rule="evenodd"/><path fill="#000000" fill-opacity="0.0" d="m195.30411 134.15318l83.27557 54.61418" fill-rule="evenodd"/><path stroke="#000000" stroke-width="3.0" stroke-linejoin="round" stroke-linecap="butt" d="m195.30411 134.15318l83.27557 54.61418" fill-rule="evenodd"/><path fill="#000000" fill-opacity="0.0" d="m278.57217 39.015747l-83.27559 54.614174" fill-rule="evenodd"/><path stroke="#000000" stroke-width="3.0" stroke-linejoin="round" stroke-linecap="butt" d="m278.57217 39.015747l-83.27559 54.614174" fill-rule="evenodd"/><path fill="#000000" fill-opacity="0.0" d="m335.86353 39.015747l83.27557 54.614174" fill-rule="evenodd"/><path stroke="#000000" stroke-width="3.0" stroke-linejoin="round" stroke-linecap="butt" d="m335.86353 39.015747l83.27557 54.614174" fill-rule="evenodd"/><path fill="#000000" fill-opacity="0.0" d="m109.77428 156.34383l36.62993 0l0 42.015747l-36.62993 0z" fill-rule="evenodd"/><path fill="#000000" d="m128.1649 183.30145l0 1.578125l-8.828125 0q-0.015625 -0.59375 0.1875 -1.140625q0.34375 -0.90625 1.078125 -1.78125q0.75 -0.875 2.15625 -2.015625q2.171875 -1.78125 2.9375 -2.828125q0.765625 -1.046875 0.765625 -1.96875q0 -0.984375 -0.703125 -1.640625q-0.6875 -0.671875 -1.8125 -0.671875q-1.1875 0 -1.90625 0.71875q-0.703125 0.703125 -0.703125 1.953125l-1.6875 -0.171875q0.171875 -1.890625 1.296875 -2.875q1.140625 -0.984375 3.03125 -0.984375q1.921875 0 3.046875 1.0625q1.125 1.0625 1.125 2.640625q0 0.796875 -0.328125 1.578125q-0.328125 0.78125 -1.09375 1.640625q-0.75 0.84375 -2.53125 2.34375q-1.46875 1.234375 -1.890625 1.6875q-0.421875 0.4375 -0.6875 0.875l6.546875 0z" fill-rule="nonzero"/><path fill="#000000" fill-opacity="0.0" d="m213.18898 156.34383l36.629913 0l0 42.015747l-36.629913 0z" fill-rule="evenodd"/><path fill="#000000" d="m231.5796 183.30145l0 1.578125l-8.828125 0q-0.015625 -0.59375 0.1875 -1.140625q0.34375 -0.90625 1.078125 -1.78125q0.75 -0.875 2.15625 -2.015625q2.171875 -1.78125 2.9375 -2.828125q0.765625 -1.046875 0.765625 -1.96875q0 -0.984375 -0.703125 -1.640625q-0.6875 -0.671875 -1.8125 -0.671875q-1.1875 0 -1.90625 0.71875q-0.703125 0.703125 -0.703125 1.953125l-1.6875 -0.171875q0.171875 -1.890625 1.296875 -2.875q1.140625 -0.984375 3.03125 -0.984375q1.921875 0 3.046875 1.0625q1.125 1.0625 1.125 2.640625q0 0.796875 -0.328125 1.578125q-0.328125 0.78125 -1.09375 1.640625q-0.75 0.84375 -2.53125 2.34375q-1.46875 1.234375 -1.890625 1.6875q-0.421875 0.4375 -0.6875 0.875l6.546875 0z" fill-rule="nonzero"/><path fill="#000000" fill-opacity="0.0" d="m213.19029 25.64567l36.629913 0l0 42.015747l-36.629913 0z" fill-rule="evenodd"/><path fill="#000000" d="m222.97154 49.034416l1.640625 -0.21875q0.28125 1.40625 0.953125 2.015625q0.6875 0.609375 1.65625 0.609375q1.15625 0 1.953125 -0.796875q0.796875 -0.796875 0.796875 -1.984375q0 -1.125 -0.734375 -1.859375q-0.734375 -0.734375 -1.875 -0.734375q-0.46875 0 -1.15625 0.171875l0.1875 -1.4375q0.15625 0.015625 0.265625 0.015625q1.046875 0 1.875 -0.546875q0.84375 -0.546875 0.84375 -1.671875q0 -0.90625 -0.609375 -1.5q-0.609375 -0.59375 -1.578125 -0.59375q-0.953125 0 -1.59375 0.609375q-0.640625 0.59375 -0.8125 1.796875l-1.640625 -0.296875q0.296875 -1.640625 1.359375 -2.546875q1.0625 -0.90625 2.65625 -0.90625q1.09375 0 2.0 0.46875q0.921875 0.46875 1.40625 1.28125q0.5 0.8125 0.5 1.71875q0 0.859375 -0.46875 1.578125q-0.46875 0.703125 -1.375 1.125q1.1875 0.28125 1.84375 1.140625q0.65625 0.859375 0.65625 2.15625q0 1.734375 -1.28125 2.953125q-1.265625 1.21875 -3.21875 1.21875q-1.765625 0 -2.921875 -1.046875q-1.15625 -1.046875 -1.328125 -2.71875z" fill-rule="nonzero"/><path fill="#000000" fill-opacity="0.0" d="m370.1942 25.64567l36.629944 0l0 42.015747l-36.629944 0z" fill-rule="evenodd"/><path fill="#000000" d="m379.97546 49.034416l1.640625 -0.21875q0.28125 1.40625 0.953125 2.015625q0.6875 0.609375 1.65625 0.609375q1.15625 0 1.953125 -0.796875q0.796875 -0.796875 0.796875 -1.984375q0 -1.125 -0.734375 -1.859375q-0.734375 -0.734375 -1.875 -0.734375q-0.46875 0 -1.15625 0.171875l0.1875 -1.4375q0.15625 0.015625 0.265625 0.015625q1.046875 0 1.875 -0.546875q0.84375 -0.546875 0.84375 -1.671875q0 -0.90625 -0.609375 -1.5q-0.609375 -0.59375 -1.578125 -0.59375q-0.953125 0 -1.59375 0.609375q-0.640625 0.59375 -0.8125 1.796875l-1.640625 -0.296875q0.296875 -1.640625 1.359375 -2.546875q1.0625 -0.90625 2.65625 -0.90625q1.09375 0 2.0 0.46875q0.921875 0.46875 1.40625 1.28125q0.5 0.8125 0.5 1.71875q0 0.859375 -0.46875 1.578125q-0.46875 0.703125 -1.375 1.125q1.1875 0.28125 1.84375 1.140625q0.65625 0.859375 0.65625 2.15625q0 1.734375 -1.28125 2.953125q-1.265625 1.21875 -3.21875 1.21875q-1.765625 0 -2.921875 -1.046875q-1.15625 -1.046875 -1.328125 -2.71875z" fill-rule="nonzero"/><path fill="#000000" fill-opacity="0.0" d="m14.233596 92.88976l36.62992 0l0 42.015755l-36.62992 0z" fill-rule="evenodd"/><path fill="#000000" d="m29.264845 119.80976l0 -3.203125l-5.796875 0l0 -1.5l6.09375 -8.65625l1.34375 0l0 8.65625l1.7968769 0l0 1.5l-1.7968769 0l0 3.203125l-1.640625 0zm0 -4.703125l0 -6.015625l-4.1875 6.015625l4.1875 0z" fill-rule="nonzero"/></g></svg>