<svg version="1.1" viewBox="0.0 0.0 467.70866141732284 397.43569553805776" fill="none" stroke="none" stroke-linecap="square" stroke-miterlimit="10" xmlns:xlink="http://www.w3.org/1999/xlink" xmlns="http://www.w3.org/2000/svg"><clipPath id="p.0"><path d="m0 0l467.70865 0l0 397.4357l-467.70865 0l0 -397.4357z" clip-rule="nonzero"/></clipPath><g clip-path="url(#p.0)"><path fill="#000000" fill-opacity="0.0" d="m0 0l467.70865 0l0 397.4357l-467.70865 0z" fill-rule="evenodd"/><path fill="#000000" fill-opacity="0.0" d="m390.22833 48.816273l0 0c0 -15.820564 12.825104 -28.64567 28.64569 -28.64567l0 0c7.59729 0 14.883423 3.0180187 20.255554 8.390123c5.372101 5.3721046 8.390106 12.658241 8.390106 20.255547l0 0c0 15.820568 -12.825104 28.645672 -28.64566 28.645672l0 0c-15.820587 0 -28.64569 -12.825104 -28.64569 -28.645672z" fill-rule="evenodd"/><path stroke="#000000" stroke-width="3.0" stroke-linejoin="round" stroke-linecap="butt" d="m390.22833 48.816273l0 0c0 -15.820564 12.825104 -28.64567 28.64569 -28.64567l0 0c7.59729 0 14.883423 3.0180187 20.255554 8.390123c5.372101 5.3721046 8.390106 12.658241 8.390106 20.255547l0 0c0 15.820568 -12.825104 28.645672 -28.64566 28.645672l0 0c-15.820587 0 -28.64569 -12.825104 -28.64569 -28.645672z" fill-rule="evenodd"/><path fill="#000000" d="m426.96777 60.53627l-15.75 0l0 -3.265625q1.640625 -1.40625 3.28125 -2.8125q1.65625 -1.40625 3.078125 -2.796875q3.0 -2.90625 4.109375 -4.609375q1.109375 -1.71875 1.109375 -3.703125q0 -1.8125 -1.203125 -2.828125q-1.1875 -1.03125 -3.328125 -1.03125q-1.421875 0 -3.078125 0.5q-1.65625 0.5 -3.234375 1.53125l-0.15625 0l0 -3.28125q1.109375 -0.546875 2.953125 -1.0q1.859375 -0.453125 3.59375 -0.453125q3.578125 0 5.609375 1.734375q2.03125 1.71875 2.03125 4.671875q0 1.328125 -0.34375 2.484375q-0.328125 1.140625 -0.984375 2.171875q-0.609375 0.96875 -1.4375 1.90625q-0.8125 0.9375 -1.984375 2.078125q-1.671875 1.640625 -3.453125 3.1875q-1.78125 1.53125 -3.328125 2.84375l12.515625 0l0 2.671875z" fill-rule="nonzero"/><path fill="#000000" fill-opacity="0.0" d="m204.59055 48.816273l0 0c0 -15.820564 12.825104 -28.64567 28.645676 -28.64567l0 0c7.5973053 0 14.883438 3.0180187 20.255539 8.390123c5.372101 5.3721046 8.390137 12.658241 8.390137 20.255547l0 0c0 15.820568 -12.825104 28.645672 -28.645676 28.645672l0 0c-15.820572 0 -28.645676 -12.825104 -28.645676 -28.645672z" fill-rule="evenodd"/><path stroke="#000000" stroke-width="3.0" stroke-linejoin="round" stroke-linecap="butt" d="m204.59055 48.816273l0 0c0 -15.820564 12.825104 -28.64567 28.645676 -28.64567l0 0c7.5973053 0 14.883438 3.0180187 20.255539 8.390123c5.372101 5.3721046 8.390137 12.658241 8.390137 20.255547l0 0c0 15.820568 -12.825104 28.645672 -28.645676 28.645672l0 0c-15.820572 0 -28.645676 -12.825104 -28.645676 -28.645672z" fill-rule="evenodd"/><path fill="#000000" d="m240.00185 60.53627l-12.59375 0l0 -2.375l4.84375 0l0 -15.59375l-4.84375 0l0 -2.125q0.984375 0 2.109375 -0.15625q1.125 -0.171875 1.703125 -0.484375q0.71875 -0.390625 1.125 -0.984375q0.421875 -0.609375 0.484375 -1.625l2.421875 0l0 20.96875l4.75 0l0 2.375z" fill-rule="nonzero"/><path fill="#000000" fill-opacity="0.0" d="m18.952755 48.816273l0 0c0 -15.820564 12.825104 -28.64567 28.645672 -28.64567l0 0c7.5973015 0 14.883442 3.0180187 20.255547 8.390123c5.372101 5.3721046 8.390121 12.658241 8.390121 20.255547l0 0c0 15.820568 -12.825104 28.645672 -28.645668 28.645672l0 0c-15.820568 0 -28.645672 -12.825104 -28.645672 -28.645672z" fill-rule="evenodd"/><path stroke="#000000" stroke-width="3.0" stroke-linejoin="round" stroke-linecap="butt" d="m18.952755 48.816273l0 0c0 -15.820564 12.825104 -28.64567 28.645672 -28.64567l0 0c7.5973015 0 14.883442 3.0180187 20.255547 8.390123c5.372101 5.3721046 8.390121 12.658241 8.390121 20.255547l0 0c0 15.820568 -12.825104 28.645672 -28.645668 28.645672l0 0c-15.820568 0 -28.645672 -12.825104 -28.645672 -28.645672z" fill-rule="evenodd"/><path fill="#000000" d="m55.660923 48.895645q0 6.265625 -1.96875 9.203125q-1.953125 2.9218788 -6.078125 2.9218788q-4.1875 0 -6.125 -2.9687538q-1.921875 -2.96875 -1.921875 -9.125q0 -6.203125 1.953125 -9.15625q1.953125 -2.96875 6.09375 -2.96875q4.1875 0 6.109375 3.015625q1.9375 3.0 1.9375 9.078125zm-4.109375 7.09375q0.546875 -1.265625 0.734375 -2.96875q0.203125 -1.71875 0.203125 -4.125q0 -2.375 -0.203125 -4.125q-0.1875 -1.75 -0.75 -2.96875q-0.546875 -1.203125 -1.5 -1.8125q-0.9375 -0.609375 -2.421875 -0.609375q-1.46875 0 -2.4375 0.609375q-0.953125 0.609375 -1.515625 1.84375q-0.53125 1.15625 -0.734375 3.015625q-0.1875 1.859375 -0.1875 4.078125q0 2.4375 0.171875 4.078125q0.171875 1.640625 0.734375 2.9375q0.515625 1.21875 1.453125 1.859375q0.953125 0.640625 2.515625 0.640625q1.46875 0 2.4375 -0.609375q0.96875 -0.609375 1.5 -1.84375z" fill-rule="nonzero"/><path fill="#000000" fill-opacity="0.0" d="m204.59055 48.2021l-128.34645 1.2283478" fill-rule="evenodd"/><path stroke="#000000" stroke-width="3.0" stroke-linejoin="round" stroke-linecap="butt" d="m204.59055 48.2021l-110.347275 1.0560837" fill-rule="evenodd"/><path fill="#000000" stroke="#000000" stroke-width="3.0" stroke-linecap="butt" d="m94.19585 44.303215l-13.566246 5.0852585l13.661087 4.8246803z" fill-rule="evenodd"/><path fill="#000000" fill-opacity="0.0" d="m261.8819 49.430447l128.34644 -1.2283478" fill-rule="evenodd"/><path stroke="#000000" stroke-width="3.0" stroke-linejoin="round" stroke-linecap="butt" d="m261.8819 49.430447l110.34726 -1.0560837" fill-rule="evenodd"/><path fill="#000000" stroke="#000000" stroke-width="3.0" stroke-linecap="butt" d="m372.27658 53.32933l13.566254 -5.0852585l-13.661072 -4.8246803z" fill-rule="evenodd"/><path fill="#000000" fill-opacity="0.0" d="m47.70866 77.461945l-0.22047043 92.47244" fill-rule="evenodd"/><path stroke="#000000" stroke-width="3.0" stroke-linejoin="round" stroke-linecap="butt" d="m47.70866 77.461945l-0.17755508 74.47249" fill-rule="evenodd"/><path fill="#000000" stroke="#000000" stroke-width="3.0" stroke-linecap="butt" d="m42.57592 151.92262l4.9227257 13.626068l4.9876404 -13.6024475z" fill-rule="evenodd"/><path fill="#000000" fill-opacity="0.0" d="m233.34645 77.461945l-0.22045898 92.47244" fill-rule="evenodd"/><path stroke="#000000" stroke-width="3.0" stroke-linejoin="round" stroke-linecap="butt" d="m233.34645 77.461945l-0.17755127 74.47249" fill-rule="evenodd"/><path fill="#000000" stroke="#000000" stroke-width="3.0" stroke-linecap="butt" d="m228.21371 151.92262l4.9227295 13.626068l4.9876404 -13.6024475z" fill-rule="evenodd"/><path fill="#000000" fill-opacity="0.0" d="m418.9685 77.461945l-0.09448242 242.2362" fill-rule="evenodd"/><path stroke="#000000" stroke-width="3.0" stroke-linejoin="round" stroke-linecap="butt" d="m418.9685 77.461945l-0.08746338 224.2362" fill-rule="evenodd"/><path fill="#000000" stroke="#000000" stroke-width="3.0" stroke-linecap="butt" d="m413.92584 301.69623l4.94989 13.616241l4.9605103 -13.612366z" fill-rule="evenodd"/><path fill="#000000" fill-opacity="0.0" d="m204.59055 198.58005l0 0c0 -15.820557 12.825104 -28.64566 28.645676 -28.64566l0 0c7.5973053 0 14.883438 3.0180206 20.255539 8.390121c5.372101 5.372101 8.390137 12.658234 8.390137 20.255539l0 0c0 15.820572 -12.825104 28.645676 -28.645676 28.645676l0 0c-15.820572 0 -28.645676 -12.825104 -28.645676 -28.645676z" fill-rule="evenodd"/><path stroke="#000000" stroke-width="3.0" stroke-linejoin="round" stroke-linecap="butt" d="m204.59055 198.58005l0 0c0 -15.820557 12.825104 -28.64566 28.645676 -28.64566l0 0c7.5973053 0 14.883438 3.0180206 20.255539 8.390121c5.372101 5.372101 8.390137 12.658234 8.390137 20.255539l0 0c0 15.820572 -12.825104 28.645676 -28.645676 28.645676l0 0c-15.820572 0 -28.645676 -12.825104 -28.645676 -28.645676z" fill-rule="evenodd"/><path fill="#000000" d="m241.86122 203.75317l-3.453125 0l0 6.546875l-3.0 0l0 -6.546875l-11.140625 0l0 -3.59375l11.265625 -13.125l2.875 0l0 14.21875l3.453125 0l0 2.5zm-6.453125 -2.5l0 -10.5l-9.015625 10.5l9.015625 0z" fill-rule="nonzero"/><path fill="#000000" fill-opacity="0.0" d="m18.952755 198.58005l0 0c0 -15.820557 12.825104 -28.64566 28.645672 -28.64566l0 0c7.5973015 0 14.883442 3.0180206 20.255547 8.390121c5.372101 5.372101 8.390121 12.658234 8.390121 20.255539l0 0c0 15.820572 -12.825104 28.645676 -28.645668 28.645676l0 0c-15.820568 0 -28.645672 -12.825104 -28.645672 -28.645676z" fill-rule="evenodd"/><path stroke="#000000" stroke-width="3.0" stroke-linejoin="round" stroke-linecap="butt" d="m18.952755 198.58005l0 0c0 -15.820557 12.825104 -28.64566 28.645672 -28.64566l0 0c7.5973015 0 14.883442 3.0180206 20.255547 8.390121c5.372101 5.372101 8.390121 12.658234 8.390121 20.255539l0 0c0 15.820572 -12.825104 28.645676 -28.645668 28.645676l0 0c-15.820568 0 -28.645672 -12.825104 -28.645672 -28.645676z" fill-rule="evenodd"/><path fill="#000000" d="m53.645298 199.09692q0.75 0.671875 1.234375 1.6875q0.484375 1.015625 0.484375 2.625q0 1.59375 -0.578125 2.921875q-0.578125 1.328125 -1.625 2.3125q-1.171875 1.09375 -2.765625 1.625q-1.578125 0.515625 -3.46875 0.515625q-1.9375 0 -3.8125 -0.46875q-1.875 -0.453125 -3.078125 -1.0l0 -3.265625l0.234375 0q1.328125 0.875 3.125 1.453125q1.796875 0.578125 3.46875 0.578125q0.984375 0 2.09375 -0.328125q1.109375 -0.328125 1.796875 -0.96875q0.71875 -0.6875 1.0625 -1.515625q0.359375 -0.828125 0.359375 -2.09375q0 -1.25 -0.40625 -2.0625q-0.390625 -0.828125 -1.09375 -1.296875q-0.703125 -0.484375 -1.703125 -0.65625q-1.0 -0.1875 -2.15625 -0.1875l-1.40625 0l0 -2.59375l1.09375 0q2.375 0 3.78125 -0.984375q1.421875 -1.0 1.421875 -2.90625q0 -0.84375 -0.359375 -1.46875q-0.359375 -0.640625 -1.0 -1.046875q-0.671875 -0.40625 -1.4375 -0.5625q-0.765625 -0.15625 -1.734375 -0.15625q-1.484375 0 -3.15625 0.53125q-1.671875 0.53125 -3.15625 1.5l-0.15625 0l0 -3.265625q1.109375 -0.546875 2.953125 -1.0q1.859375 -0.46875 3.59375 -0.46875q1.703125 0 3.0 0.3125q1.296875 0.3125 2.34375 1.0q1.125 0.75 1.703125 1.8125q0.578125 1.0625 0.578125 2.484375q0 1.9375 -1.375 3.390625q-1.359375 1.4375 -3.21875 1.8125l0 0.21875q0.75 0.125 1.71875 0.53125q0.96875 0.390625 1.640625 0.984375z" fill-rule="nonzero"/><path fill="#000000" fill-opacity="0.0" d="m76.244095 199.19423l128.34645 -1.2283478" fill-rule="evenodd"/><path stroke="#000000" stroke-width="3.0" stroke-linejoin="round" stroke-linecap="butt" d="m94.24327 199.02196l92.3481 -0.8838196" fill-rule="evenodd"/><path fill="#000000" stroke="#000000" stroke-width="3.0" stroke-linecap="butt" d="m94.19585 194.06699l-13.566246 5.085266l13.661087 4.8246765z" fill-rule="evenodd"/><path fill="#000000" stroke="#000000" stroke-width="3.0" stroke-linecap="butt" d="m186.6388 203.09311l13.566254 -5.085251l-13.661087 -4.824692z" fill-rule="evenodd"/><path fill="#000000" fill-opacity="0.0" d="m47.70866 227.22572l-0.22047043 92.47243" fill-rule="evenodd"/><path stroke="#000000" stroke-width="3.0" stroke-linejoin="round" stroke-linecap="butt" d="m47.70866 227.22572l-0.17755508 74.47249" fill-rule="evenodd"/><path fill="#000000" stroke="#000000" stroke-width="3.0" stroke-linecap="butt" d="m42.57592 301.6864l4.9227257 13.626068l4.9876404 -13.6024475z" fill-rule="evenodd"/><path fill="#000000" fill-opacity="0.0" d="m233.34645 227.22572l-0.22045898 92.47243" fill-rule="evenodd"/><path stroke="#000000" stroke-width="3.0" stroke-linejoin="round" stroke-linecap="butt" d="m233.34645 227.22572l-0.17755127 74.47249" fill-rule="evenodd"/><path fill="#000000" stroke="#000000" stroke-width="3.0" stroke-linecap="butt" d="m228.21371 301.6864l4.9227295 13.626068l4.9876404 -13.6024475z" fill-rule="evenodd"/><path fill="#000000" fill-opacity="0.0" d="m390.22833 348.34384l0 0c0 -15.820587 12.825104 -28.64569 28.64569 -28.64569l0 0c7.59729 0 14.883423 3.018036 20.255554 8.390137c5.372101 5.372101 8.390106 12.658234 8.390106 20.255554l0 0c0 15.820557 -12.825104 28.64566 -28.64566 28.64566l0 0c-15.820587 0 -28.64569 -12.825104 -28.64569 -28.64566z" fill-rule="evenodd"/><path stroke="#000000" stroke-width="3.0" stroke-linejoin="round" stroke-linecap="butt" d="m390.22833 348.34384l0 0c0 -15.820587 12.825104 -28.64569 28.64569 -28.64569l0 0c7.59729 0 14.883423 3.018036 20.255554 8.390137c5.372101 5.372101 8.390106 12.658234 8.390106 20.255554l0 0c0 15.820557 -12.825104 28.64566 -28.64566 28.64566l0 0c-15.820587 0 -28.64569 -12.825104 -28.64569 -28.64566z" fill-rule="evenodd"/><path fill="#000000" d="m427.03027 340.2826l-10.53125 19.78125l-3.34375 0l11.203125 -20.53125l-13.25 0l0 -2.734375l15.921875 0l0 3.484375z" fill-rule="nonzero"/><path fill="#000000" fill-opacity="0.0" d="m204.59055 348.34384l0 0c0 -15.820587 12.825104 -28.64569 28.645676 -28.64569l0 0c7.5973053 0 14.883438 3.018036 20.255539 8.390137c5.372101 5.372101 8.390137 12.658234 8.390137 20.255554l0 0c0 15.820557 -12.825104 28.64566 -28.645676 28.64566l0 0c-15.820572 0 -28.645676 -12.825104 -28.645676 -28.64566z" fill-rule="evenodd"/><path stroke="#000000" stroke-width="3.0" stroke-linejoin="round" stroke-linecap="butt" d="m204.59055 348.34384l0 0c0 -15.820587 12.825104 -28.64569 28.645676 -28.64569l0 0c7.5973053 0 14.883438 3.018036 20.255539 8.390137c5.372101 5.372101 8.390137 12.658234 8.390137 20.255554l0 0c0 15.820557 -12.825104 28.64566 -28.645676 28.64566l0 0c-15.820572 0 -28.645676 -12.825104 -28.645676 -28.64566z" fill-rule="evenodd"/><path fill="#000000" d="m241.67372 352.51697q0 3.546875 -2.34375 5.796875q-2.328125 2.234375 -5.71875 2.234375q-1.71875 0 -3.125 -0.53125q-1.40625 -0.53125 -2.484375 -1.578125q-1.34375 -1.296875 -2.078125 -3.4375q-0.71875 -2.140625 -0.71875 -5.15625q0 -3.09375 0.65625 -5.484375q0.671875 -2.390625 2.125 -4.25q1.375 -1.765625 3.546875 -2.75q2.171875 -1.0 5.0625 -1.0q0.921875 0 1.546875 0.078125q0.625 0.078125 1.265625 0.28125l0 2.984375l-0.15625 0q-0.4375 -0.234375 -1.328125 -0.4375q-0.875 -0.21875 -1.796875 -0.21875q-3.359375 0 -5.359375 2.109375q-2.0 2.09375 -2.328125 5.671875q1.3125 -0.796875 2.578125 -1.203125q1.28125 -0.421875 2.953125 -0.421875q1.484375 0 2.609375 0.28125q1.140625 0.265625 2.328125 1.09375q1.375 0.953125 2.0625 2.40625q0.703125 1.453125 0.703125 3.53125zm-3.171875 0.125q0 -1.453125 -0.4375 -2.40625q-0.421875 -0.953125 -1.40625 -1.65625q-0.71875 -0.5 -1.59375 -0.65625q-0.875 -0.15625 -1.828125 -0.15625q-1.328125 0 -2.46875 0.3125q-1.140625 0.3125 -2.34375 0.96875q-0.03125 0.34375 -0.046875 0.671875q-0.015625 0.3125 -0.015625 0.796875q0 2.46875 0.5 3.90625q0.515625 1.421875 1.40625 2.25q0.71875 0.6875 1.546875 1.015625q0.84375 0.3125 1.828125 0.3125q2.265625 0 3.5625 -1.375q1.296875 -1.390625 1.296875 -3.984375z" fill-rule="nonzero"/><path fill="#000000" fill-opacity="0.0" d="m18.952755 348.34384l0 0c0 -15.820587 12.825104 -28.64569 28.645672 -28.64569l0 0c7.5973015 0 14.883442 3.018036 20.255547 8.390137c5.372101 5.372101 8.390121 12.658234 8.390121 20.255554l0 0c0 15.820557 -12.825104 28.64566 -28.645668 28.64566l0 0c-15.820568 0 -28.645672 -12.825104 -28.645672 -28.64566z" fill-rule="evenodd"/><path stroke="#000000" stroke-width="3.0" stroke-linejoin="round" stroke-linecap="butt" d="m18.952755 348.34384l0 0c0 -15.820587 12.825104 -28.64569 28.645672 -28.64569l0 0c7.5973015 0 14.883442 3.018036 20.255547 8.390137c5.372101 5.372101 8.390121 12.658234 8.390121 20.255554l0 0c0 15.820557 -12.825104 28.64566 -28.645668 28.64566l0 0c-15.820568 0 -28.645672 -12.825104 -28.645672 -28.64566z" fill-rule="evenodd"/><path fill="#000000" d="m55.504673 352.67322q0 1.625 -0.59375 3.109375q-0.59375 1.484375 -1.625 2.5q-1.125 1.09375 -2.6875 1.6875q-1.546875 0.578125 -3.59375 0.578125q-1.90625 0 -3.671875 -0.40625q-1.765625 -0.390625 -2.984375 -0.953125l0 -3.296875l0.21875 0q1.28125 0.8125 3.0 1.390625q1.71875 0.5625 3.375 0.5625q1.109375 0 2.140625 -0.3125q1.046875 -0.3125 1.859375 -1.09375q0.6875 -0.671875 1.03125 -1.609375q0.359375 -0.9375 0.359375 -2.171875q0 -1.203125 -0.421875 -2.03125q-0.40625 -0.828125 -1.140625 -1.328125q-0.8125 -0.59375 -1.984375 -0.828125q-1.15625 -0.25 -2.59375 -0.25q-1.375 0 -2.65625 0.1875q-1.265625 0.1875 -2.1875 0.375l0 -11.984375l14.0 0l0 2.734375l-10.984375 0l0 6.1875q0.671875 -0.0625 1.375 -0.09375q0.703125 -0.03125 1.21875 -0.03125q1.890625 0 3.3125 0.328125q1.421875 0.3125 2.609375 1.125q1.25 0.859375 1.9375 2.21875q0.6875 1.359375 0.6875 3.40625z" fill-rule="nonzero"/><path fill="#000000" fill-opacity="0.0" d="m76.244095 348.958l128.34645 -1.228363" fill-rule="evenodd"/><path stroke="#000000" stroke-width="3.0" stroke-linejoin="round" stroke-linecap="butt" d="m76.244095 348.958l110.347275 -1.0560913" fill-rule="evenodd"/><path fill="#000000" stroke="#000000" stroke-width="3.0" stroke-linecap="butt" d="m186.6388 352.8569l13.566254 -5.085266l-13.661087 -4.8246765z" fill-rule="evenodd"/><path fill="#000000" fill-opacity="0.0" d="m261.8819 348.958l128.34644 -1.228363" fill-rule="evenodd"/><path stroke="#000000" stroke-width="3.0" stroke-linejoin="round" stroke-linecap="butt" d="m261.8819 348.958l110.34726 -1.0560913" fill-rule="evenodd"/><path fill="#000000" stroke="#000000" stroke-width="3.0" stroke-linecap="butt" d="m372.27658 352.8569l13.566254 -5.085266l-13.661072 -4.8246765z" fill-rule="evenodd"/></g></svg>